<svg width="47" height="47" viewBox="0 0 42 42" fill="none" xmlns="http://www.w3.org/2000/svg">
<g clip-path="url(#clip0_88_2652)">
<path d="M42 21C42 32.598 32.598 42 21 42L7.875 42C3.52576 42 4.12293e-06 38.4742 4.50315e-06 34.125L6.798e-06 7.875C7.17822e-06 3.52576 3.52576 4.51172e-07 7.87501 8.31395e-07L21 1.97882e-06C32.598 2.99275e-06 42 9.40202 42 21Z" fill="black"/>
<path d="M25.1562 31.4297C24.7031 32.1953 23.875 32.6172 22.8516 32.6172C21.2422 32.6172 20.1562 31.6016 20.1562 30.1016C20.1562 28.5781 21.2656 27.6484 23.1094 27.6406H25.1719V26.9062C25.1719 25.9766 24.6016 25.4922 23.5469 25.4922C22.8906 25.4922 22.4375 25.7266 21.9609 26.2109C21.75 26.4141 21.5469 26.4922 21.25 26.4922C20.8672 26.4922 20.6172 26.2344 20.6172 25.8594C20.6172 25.3828 20.9453 24.9141 21.6406 24.5391C22.1406 24.2656 22.7969 24.1172 23.6562 24.1172C25.7422 24.1172 26.9062 25.1172 26.9062 26.9141V31.6406C26.9062 32.2344 26.6016 32.5781 26.0625 32.5781C25.5859 32.5781 25.2812 32.2891 25.2422 31.7969V31.4297H25.1562ZM21.8984 30.0156C21.8984 30.7812 22.5 31.2969 23.3906 31.2969C24.3984 31.2969 25.1719 30.6094 25.1719 29.7188V28.8281H23.3516C22.4297 28.8281 21.8984 29.2578 21.8984 30.0156ZM27.9619 22.1641C27.9619 21.6016 28.4072 21.1953 28.9853 21.1953C29.5869 21.1953 30.0244 21.6016 30.0244 22.1641C30.0244 22.7344 29.5869 23.1484 28.9853 23.1484C28.4072 23.1484 27.9619 22.7344 27.9619 22.1641ZM29.8603 31.6172C29.8603 32.2578 29.5166 32.5781 28.9931 32.5781C28.4697 32.5781 28.1259 32.25 28.1259 31.6172V25.1328C28.1259 24.4922 28.4775 24.1719 28.9931 24.1719C29.5166 24.1719 29.8603 24.5 29.8603 25.1328V31.6172Z" fill="#5269FF"/>
<path d="M11.5444 32.6611C10.6743 32.6611 10.1426 32.0649 10.1426 31.1143V12.9385C10.1426 11.1821 10.8677 10.5054 12.769 10.5054H18.1348C22.3403 10.5054 25.144 13.2446 25.144 17.3374C25.144 21.4624 22.3403 24.1533 18.1025 24.1533H12.9463V31.1143C12.9463 32.0649 12.4146 32.6611 11.5444 32.6611ZM12.9624 21.688H16.314C20.6807 21.688 22.2598 20.5439 22.2598 17.3374C22.2598 14.582 20.6968 12.9868 17.9736 12.9868H12.9624V21.688Z" fill="white"/>
<g opacity="0.4" filter="url(#filter0_f_88_2652)">
<circle cx="2" cy="1" r="16" fill="white"/>
</g>
</g>
<defs>
<filter id="filter0_f_88_2652" x="-39" y="-40" width="82" height="82" filterUnits="userSpaceOnUse" color-interpolation-filters="sRGB">
<feFlood flood-opacity="0" result="BackgroundImageFix"/>
<feBlend mode="normal" in="SourceGraphic" in2="BackgroundImageFix" result="shape"/>
<feGaussianBlur stdDeviation="12.5" result="effect1_foregroundBlur_88_2652"/>
</filter>
<clipPath id="clip0_88_2652">
<rect width="42" height="42" fill="white"/>
</clipPath>
</defs>
</svg>
