<svg width="24" height="24" viewBox="0 0 24 24" fill="none" xmlns="http://www.w3.org/2000/svg">
<path fill-rule="evenodd" clip-rule="evenodd" d="M13.4773 3.45263C14.4203 2.54184 15.6833 2.03787 16.9943 2.04926C18.3053 2.06065 19.5594 2.5865 20.4864 3.51354C21.4134 4.44058 21.9393 5.69464 21.9507 7.00563C21.9621 8.31661 21.4581 9.57962 20.5473 10.5226L20.5351 10.535L16.5351 14.535C15.5975 15.4724 14.3258 15.9991 13 15.9991C11.6742 15.9991 10.4027 15.4725 9.46502 14.5351C9.07444 14.1447 9.07434 13.5115 9.46481 13.1209C9.85527 12.7303 10.4884 12.7302 10.879 13.1207C11.4416 13.6831 12.2045 13.9991 13 13.9991C13.7955 13.9991 14.5583 13.6832 15.1209 13.1208C15.1209 13.1208 15.1209 13.1208 15.1209 13.1208L19.1144 9.12737C19.6573 8.5622 19.9576 7.80689 19.9508 7.023C19.9439 6.23641 19.6284 5.48398 19.0722 4.92775C18.516 4.37153 17.7635 4.05602 16.9769 4.04919C16.193 4.04237 15.4377 4.34267 14.8725 4.88561L13.7791 5.97903C13.3886 6.36955 12.7554 6.36955 12.3649 5.97903C11.9744 5.5885 11.9744 4.95534 12.3649 4.56481L13.4649 3.46481L13.4773 3.45263ZM7.46502 9.46471C8.40266 8.52735 9.6742 8.00077 11 8.00077C12.3258 8.00077 13.5974 8.52735 14.535 9.46471C14.9256 9.85517 14.9257 10.4883 14.5352 10.8789C14.1448 11.2695 13.5116 11.2696 13.121 10.8791C12.5584 10.3167 11.7955 10.0008 11 10.0008C10.2046 10.0008 9.4417 10.3167 8.87913 10.879C8.87909 10.8791 8.87916 10.879 8.87913 10.879L4.87913 14.879L4.86673 14.8912C4.5802 15.1679 4.35165 15.499 4.19443 15.865C4.0372 16.231 3.95444 16.6247 3.95098 17.023C3.94752 17.4213 4.02342 17.8164 4.17427 18.1851C4.32511 18.5538 4.54787 18.8887 4.82955 19.1704C5.11122 19.4521 5.44618 19.6748 5.81487 19.8257C6.18356 19.9765 6.5786 20.0524 6.97693 20.049C7.37527 20.0455 7.76893 19.9627 8.13494 19.8055C8.50096 19.6483 8.83199 19.4197 9.10873 19.1332L9.12123 19.1205L10.2232 18.0195C10.6139 17.6291 11.2471 17.6294 11.6374 18.0201C12.0278 18.4108 12.0275 19.044 11.6368 19.4343L10.5408 20.5294C10.0809 21.0038 9.53147 21.3823 8.92433 21.6431C8.31431 21.9052 7.65821 22.0431 6.99431 22.0489C6.33042 22.0547 5.67202 21.9281 5.05754 21.6767C4.44306 21.4253 3.8848 21.0541 3.41533 20.5846C2.94587 20.1151 2.5746 19.5569 2.3232 18.9424C2.07179 18.3279 1.94529 17.6695 1.95106 17.0056C1.95682 16.3417 2.09476 15.6856 2.3568 15.0756C2.61764 14.4684 2.99625 13.919 3.47071 13.459L7.46502 9.46471Z" fill="#5269FF"/>
</svg>
