<svg width="17" height="17" viewBox="0 0 17 17" fill="none" xmlns="http://www.w3.org/2000/svg">
<g clip-path="url(#clip0_112_338)">
<path d="M0.545686 15.9642C0.897248 16.3057 1.47984 16.3057 1.82136 15.9642L8.24993 9.53558L14.6785 15.9642C15.0201 16.3057 15.6127 16.3158 15.9542 15.9642C16.2957 15.6126 16.2957 15.0401 15.9542 14.6986L9.5256 8.25993L15.9542 1.83136C16.2957 1.48984 16.3058 0.907249 15.9542 0.565731C15.6026 0.214168 15.0201 0.214168 14.6785 0.565731L8.24993 6.99431L1.82136 0.565731C1.47984 0.214168 0.887203 0.204124 0.545686 0.565731C0.204168 0.917293 0.204168 1.48984 0.545686 1.83136L6.97426 8.25993L0.545686 14.6986C0.204168 15.0401 0.194123 15.6227 0.545686 15.9642Z" fill="black" fill-opacity="0.1"/>
</g>
<defs>
<clipPath id="clip0_112_338">
<rect width="15.9283" height="15.9384" fill="white" transform="translate(0.285767 0.285706)"/>
</clipPath>
</defs>
</svg>
