<svg width="520" height="224" viewBox="0 0 520 224" fill="none" xmlns="http://www.w3.org/2000/svg">
<g clip-path="url(#clip0_319_2361)">
<rect width="520" height="224" rx="20" fill="black" fill-opacity="0.05"/>
<g filter="url(#filter0_b_319_2361)">
<g clip-path="url(#clip1_319_2361)">
<g filter="url(#filter1_b_319_2361)">
<rect width="64" height="24" transform="translate(228 192)" fill="black" fill-opacity="0.05"/>
</g>
</g>
<rect x="240" y="200" width="8" height="8" rx="4" fill="#5269FF"/>
<rect x="256" y="200" width="8" height="8" rx="4" fill="white"/>
<rect x="272" y="200" width="8" height="8" rx="4" fill="white"/>
</g>
<g clip-path="url(#clip2_319_2361)">
<rect width="520" height="224" rx="20" fill="#FFF9F6"/>
<ellipse cx="111.5" cy="101" rx="168.5" ry="169" fill="#FFF0E8"/>
<path opacity="0.5" d="M47.508 50.11L42.712 50V37.592L39.83 37.856L39.764 50.484L35.32 50.132L35.056 34.314L46.914 33.83L47.508 50.11ZM53.7426 50.55L49.2766 50.528L48.8586 34.38C50.4646 33.742 52.2686 33.522 54.1826 33.522C58.5166 33.522 61.7286 35.304 61.7286 38.714C61.7286 42.652 58.9566 45.402 53.5886 45.644L53.7426 50.55ZM53.3686 38.076L53.4786 42.014C53.6766 42.036 53.8746 42.036 54.0506 42.036C56.4486 42.036 57.8126 40.738 57.8126 39.572C57.8126 38.626 56.9546 37.812 55.0846 37.812C54.4906 37.812 53.8746 37.9 53.3686 38.076ZM73.093 49.252L62.907 50.858L62.049 34.182L72.675 33.148L72.763 38.472L66.119 38.978L66.207 40.936L71.641 40.452L71.839 43.532L66.427 44.104L66.515 46.304L72.785 45.534L73.093 49.252ZM74.7894 39.11L74.2834 34.446C75.8674 33.94 77.6934 33.654 79.5194 33.654C83.2814 33.654 86.7574 34.952 86.7574 38.384C86.7574 40.21 85.1074 41.706 82.7534 42.52C85.2174 42.982 86.5594 44.478 86.5594 46.15C86.5594 48.262 84.2934 50.484 79.2774 50.484C77.4514 50.484 75.7794 50.352 73.8214 49.472L75.0314 44.61C75.6034 45.072 77.5834 45.82 79.3874 45.82C80.2454 45.82 80.7734 45.556 80.7734 44.83C80.7734 43.62 79.3214 43.158 77.1434 43.092L77.4954 40.716C78.0234 40.782 78.4854 40.826 78.9034 40.826C81.0814 40.826 81.6754 39.836 81.6754 38.956C81.6754 38.076 80.7734 37.636 79.6514 37.636C78.1334 37.636 75.8674 38.34 74.7894 39.11ZM98.7453 49.252L88.5593 50.858L87.7013 34.182L98.3273 33.148L98.4153 38.472L91.7713 38.978L91.8593 40.936L97.2933 40.452L97.4913 43.532L92.0793 44.104L92.1673 46.304L98.4373 45.534L98.7453 49.252ZM112.586 50.176L107.614 49.956L107.944 43.488L104.644 44.214L104.798 50.286L100.64 50.11L99.4517 34.336L104.38 33.72L104.534 39.968L108.12 39.858L108.45 33.39L113.048 33.676L112.586 50.176ZM122.394 50.748L117.774 50.286L117.884 38.23L114.298 38.318L113.858 34.248L126.596 33.456L126.618 37.856L123.12 38.01L122.394 50.748ZM140.44 49.296L135.622 50.682L134.61 47.316L130.254 47.624L129.528 50.946L124.556 50L129.814 33.148L134.5 33.302L140.44 49.296ZM133.686 44.214L132.124 39.044L130.87 44.39L133.686 44.214ZM149.763 33.918L154.559 34.028L154.075 46.986L156.473 46.942L156.077 53.432L152.733 53.454L152.931 50.066L141.447 50L141.711 33.742L146.375 34.006L146.001 46.458L149.983 46.48L149.763 33.918ZM160.745 50.33L157.577 50.286L157.863 33.17L162.835 33.434L162.285 40.188L166.883 33.17L170.821 33.478L170.799 50.176L165.233 50.374L165.761 41.574L160.745 50.33ZM176.439 50.22L171.709 49.274L175.625 42.938C173.689 41.618 172.567 40.1 172.567 38.252C172.567 34.732 176.373 33.412 180.553 33.412C182.159 33.412 183.831 33.588 185.349 33.94L184.931 49.758L180.179 50.352L180.641 45.402C180.113 45.226 179.431 44.962 178.837 44.632L176.439 50.22ZM181.125 41.552L181.609 37.548C180.971 37.35 180.025 37.13 179.167 37.13C178.045 37.13 177.099 37.526 177.099 38.78C177.099 40.166 178.903 41.2 181.125 41.552ZM39.654 61.57L39.126 74.462L34.704 74.792L35.144 57.478L45.33 57.786L45.462 61.768L39.654 61.57ZM53.9647 74.638C49.4547 74.638 46.0227 70.656 46.0227 65.97C46.0227 61.218 49.4767 57.104 54.0307 57.104C58.6727 57.104 62.0827 61.042 62.0827 65.904C62.0827 70.546 58.5407 74.638 53.9647 74.638ZM54.0747 70.04C56.0547 70.04 57.1767 68.258 57.1767 66.234C57.1767 64.21 55.9667 62.45 54.1407 62.45C52.1387 62.45 50.7747 64.276 50.7747 66.3C50.7747 68.412 51.8087 70.04 54.0747 70.04ZM71.1967 74.748L66.5767 74.286L66.6867 62.23L63.1007 62.318L62.6607 58.248L75.3987 57.456L75.4207 61.856L71.9227 62.01L71.1967 74.748ZM83.7635 74.638C79.2535 74.638 75.8215 70.656 75.8215 65.97C75.8215 61.218 79.2755 57.104 83.8295 57.104C88.4715 57.104 91.8815 61.042 91.8815 65.904C91.8815 70.546 88.3395 74.638 83.7635 74.638ZM83.8735 70.04C85.8535 70.04 86.9755 68.258 86.9755 66.234C86.9755 64.21 85.7655 62.45 83.9395 62.45C81.9375 62.45 80.5735 64.276 80.5735 66.3C80.5735 68.412 81.6075 70.04 83.8735 70.04ZM93.8455 73.802L93.3835 57.984C94.6815 57.632 97.1455 57.368 99.0375 57.368C102.492 57.368 105.968 58.27 105.968 61.086C105.968 62.582 104.538 63.814 102.602 64.87C105.22 65.266 107.574 66.586 107.574 68.632C107.574 72.68 102.624 74.242 98.2895 74.242C96.9035 74.242 94.9015 74.088 93.8455 73.802ZM97.7175 60.69L97.8055 63.572C97.9595 63.594 98.0915 63.616 98.2675 63.616C99.1475 63.616 100.82 62.89 100.82 61.746C100.82 60.8 99.9395 60.448 99.0375 60.448C98.5535 60.448 98.1135 60.536 97.7175 60.69ZM97.9155 67.51L97.9815 70.48C98.3335 70.546 98.7955 70.612 99.3235 70.612C100.71 70.612 102.338 70.238 102.338 68.808C102.338 67.554 101.194 67.158 99.9615 67.158C99.1915 67.158 98.4435 67.312 97.9155 67.51ZM123.382 73.296L118.564 74.682L117.552 71.316L113.196 71.624L112.47 74.946L107.498 74L112.756 57.148L117.442 57.302L123.382 73.296ZM116.628 68.214L115.066 63.044L113.812 68.39L116.628 68.214ZM129.184 68.676L125.114 67.862L125.752 57.17L131.736 58.094L129.184 68.676ZM126.544 74.374C125.312 74.374 124.146 73.362 124.146 71.954C124.146 70.634 125.202 69.49 126.522 69.49C127.754 69.49 128.92 70.524 128.92 71.932C128.92 73.164 127.952 74.374 126.544 74.374Z" fill="black"/>
<path d="M370.333 188.178V189.76H365.159V188.178H370.333ZM361.966 191.076H363.862C363.966 191.889 364.236 192.511 364.67 192.941C365.109 193.372 365.791 193.587 366.717 193.587C367.401 193.587 367.965 193.406 368.407 193.044C368.85 192.678 369.178 192.183 369.391 191.559C369.609 190.935 369.717 190.235 369.717 189.458V188.202C369.717 187.365 369.597 186.637 369.355 186.017C369.114 185.397 368.761 184.918 368.299 184.58C367.84 184.242 367.278 184.073 366.614 184.073C366.015 184.073 365.524 184.176 365.141 184.381C364.759 184.586 364.465 184.88 364.26 185.262C364.059 185.641 363.926 186.098 363.862 186.633H361.96C362.04 185.836 362.262 185.124 362.624 184.496C362.99 183.868 363.503 183.373 364.163 183.011C364.827 182.648 365.644 182.467 366.614 182.467C367.637 182.467 368.52 182.705 369.265 183.18C370.013 183.651 370.591 184.315 370.997 185.172C371.404 186.029 371.607 187.035 371.607 188.19V189.476C371.607 190.631 371.406 191.635 371.003 192.489C370.605 193.342 370.039 194.002 369.307 194.469C368.574 194.936 367.711 195.169 366.717 195.169C365.723 195.169 364.888 194.992 364.212 194.638C363.536 194.28 363.012 193.793 362.642 193.177C362.272 192.557 362.046 191.857 361.966 191.076ZM373.785 195V185.727H375.59V189.615H376.459L379.52 185.727H381.753L378.161 190.237L381.796 195H379.556L376.761 191.293H375.59V195H373.785ZM386.722 195.187C385.824 195.187 385.052 194.984 384.404 194.577C383.76 194.167 383.265 193.601 382.919 192.881C382.572 192.161 382.399 191.336 382.399 190.406C382.399 189.464 382.576 188.633 382.931 187.913C383.285 187.188 383.784 186.623 384.428 186.216C385.072 185.81 385.83 185.607 386.704 185.607C387.408 185.607 388.036 185.737 388.587 185.999C389.139 186.257 389.583 186.619 389.921 187.086C390.264 187.552 390.467 188.098 390.531 188.722H388.774C388.678 188.287 388.456 187.913 388.11 187.599C387.768 187.285 387.309 187.128 386.734 187.128C386.231 187.128 385.79 187.261 385.412 187.526C385.038 187.788 384.746 188.162 384.536 188.649C384.327 189.132 384.223 189.704 384.223 190.364C384.223 191.04 384.325 191.623 384.53 192.114C384.736 192.605 385.025 192.986 385.4 193.255C385.778 193.525 386.223 193.66 386.734 193.66C387.076 193.66 387.386 193.597 387.664 193.473C387.945 193.344 388.181 193.161 388.37 192.923C388.563 192.686 388.698 192.4 388.774 192.066H390.531C390.467 192.666 390.272 193.201 389.946 193.672C389.62 194.143 389.183 194.513 388.636 194.783C388.092 195.052 387.454 195.187 386.722 195.187ZM392.461 195V185.727H400.026V195H398.257V187.285H394.218V195H392.461ZM406.345 195.187C405.476 195.187 404.717 194.988 404.069 194.589C403.421 194.191 402.918 193.634 402.56 192.917C402.202 192.201 402.022 191.364 402.022 190.406C402.022 189.444 402.202 188.603 402.56 187.882C402.918 187.162 403.421 186.603 404.069 186.204C404.717 185.806 405.476 185.607 406.345 185.607C407.214 185.607 407.973 185.806 408.621 186.204C409.269 186.603 409.772 187.162 410.13 187.882C410.488 188.603 410.667 189.444 410.667 190.406C410.667 191.364 410.488 192.201 410.13 192.917C409.772 193.634 409.269 194.191 408.621 194.589C407.973 194.988 407.214 195.187 406.345 195.187ZM406.351 193.672C406.914 193.672 407.381 193.523 407.752 193.225C408.122 192.927 408.395 192.531 408.573 192.036C408.754 191.541 408.844 190.996 408.844 190.4C408.844 189.808 408.754 189.265 408.573 188.77C408.395 188.271 408.122 187.87 407.752 187.569C407.381 187.267 406.914 187.116 406.351 187.116C405.783 187.116 405.313 187.267 404.938 187.569C404.568 187.87 404.292 188.271 404.111 188.77C403.934 189.265 403.846 189.808 403.846 190.4C403.846 190.996 403.934 191.541 404.111 192.036C404.292 192.531 404.568 192.927 404.938 193.225C405.313 193.523 405.783 193.672 406.351 193.672ZM412.682 198.477V185.727H414.445V187.23H414.596C414.701 187.037 414.851 186.814 415.049 186.56C415.246 186.307 415.52 186.085 415.87 185.896C416.22 185.703 416.683 185.607 417.258 185.607C418.007 185.607 418.675 185.796 419.262 186.174C419.85 186.552 420.311 187.098 420.645 187.81C420.983 188.522 421.152 189.38 421.152 190.382C421.152 191.384 420.985 192.243 420.651 192.96C420.317 193.672 419.858 194.221 419.275 194.608C418.691 194.99 418.025 195.181 417.276 195.181C416.713 195.181 416.252 195.087 415.894 194.897C415.54 194.708 415.262 194.487 415.061 194.233C414.859 193.98 414.705 193.754 414.596 193.557H414.487V198.477H412.682ZM414.451 190.364C414.451 191.016 414.546 191.587 414.735 192.078C414.924 192.569 415.198 192.953 415.556 193.231C415.914 193.505 416.353 193.642 416.872 193.642C417.411 193.642 417.862 193.499 418.224 193.213C418.586 192.923 418.86 192.531 419.045 192.036C419.234 191.541 419.329 190.983 419.329 190.364C419.329 189.752 419.236 189.203 419.051 188.716C418.87 188.229 418.596 187.844 418.23 187.562C417.868 187.281 417.415 187.14 416.872 187.14C416.349 187.14 415.906 187.275 415.544 187.544C415.185 187.814 414.914 188.19 414.729 188.673C414.544 189.156 414.451 189.72 414.451 190.364ZM422.058 187.285V185.727H429.881V187.285H426.857V195H425.094V187.285H422.058ZM433.559 192.471L437.646 185.727H439.59V195H437.821V188.251L433.753 195H431.791V185.727H433.559V192.471ZM442.017 198.477V185.727H443.78V187.23H443.931C444.035 187.037 444.186 186.814 444.384 186.56C444.581 186.307 444.854 186.085 445.205 185.896C445.555 185.703 446.018 185.607 446.593 185.607C447.342 185.607 448.01 185.796 448.597 186.174C449.185 186.552 449.646 187.098 449.98 187.81C450.318 188.522 450.487 189.38 450.487 190.382C450.487 191.384 450.32 192.243 449.986 192.96C449.652 193.672 449.193 194.221 448.609 194.608C448.026 194.99 447.36 195.181 446.611 195.181C446.048 195.181 445.587 195.087 445.229 194.897C444.875 194.708 444.597 194.487 444.396 194.233C444.194 193.98 444.04 193.754 443.931 193.557H443.822V198.477H442.017ZM443.786 190.364C443.786 191.016 443.881 191.587 444.07 192.078C444.259 192.569 444.533 192.953 444.891 193.231C445.249 193.505 445.688 193.642 446.207 193.642C446.746 193.642 447.197 193.499 447.559 193.213C447.921 192.923 448.195 192.531 448.38 192.036C448.569 191.541 448.664 190.983 448.664 190.364C448.664 189.752 448.571 189.203 448.386 188.716C448.205 188.229 447.931 187.844 447.565 187.562C447.203 187.281 446.75 187.14 446.207 187.14C445.684 187.14 445.241 187.275 444.879 187.544C444.52 187.814 444.249 188.19 444.064 188.673C443.879 189.156 443.786 189.72 443.786 190.364ZM453.335 198.477C453.065 198.477 452.82 198.455 452.598 198.411C452.377 198.371 452.212 198.326 452.103 198.278L452.538 196.799C452.868 196.888 453.162 196.926 453.419 196.914C453.677 196.902 453.904 196.805 454.102 196.624C454.303 196.443 454.48 196.147 454.633 195.737L454.856 195.121L451.463 185.727H453.395L455.744 192.923H455.84L458.189 185.727H460.126L456.305 196.238C456.128 196.721 455.903 197.129 455.629 197.463C455.355 197.801 455.029 198.055 454.651 198.224C454.273 198.393 453.834 198.477 453.335 198.477ZM463.592 192.471L467.679 185.727H469.623V195H467.854V188.251L463.785 195H461.823V185.727H463.592V192.471ZM466.906 182.588H468.391C468.391 183.268 468.15 183.822 467.667 184.248C467.188 184.671 466.54 184.882 465.723 184.882C464.91 184.882 464.264 184.671 463.785 184.248C463.306 183.822 463.066 183.268 463.066 182.588H464.545C464.545 182.89 464.634 183.158 464.811 183.391C464.988 183.62 465.292 183.735 465.723 183.735C466.145 183.735 466.447 183.62 466.628 183.391C466.813 183.162 466.906 182.894 466.906 182.588Z" fill="black"/>
</g>
<path d="M42.7545 108.73C42.2675 108.73 41.8228 108.611 41.4204 108.374C41.0179 108.132 40.6959 107.81 40.4545 107.408C40.217 107.006 40.0983 106.561 40.0983 106.074C40.0983 105.583 40.217 105.138 40.4545 104.74C40.6959 104.337 41.0179 104.017 41.4204 103.78C41.8228 103.538 42.2675 103.418 42.7545 103.418C43.2455 103.418 43.6903 103.538 44.0887 103.78C44.4912 104.017 44.8111 104.337 45.0486 104.74C45.29 105.138 45.4108 105.583 45.4108 106.074C45.4108 106.561 45.29 107.006 45.0486 107.408C44.8111 107.81 44.4912 108.132 44.0887 108.374C43.6903 108.611 43.2455 108.73 42.7545 108.73ZM56.8583 98.6364H59.1222L63.0582 108.247H63.2031L67.1392 98.6364H69.4031V111H67.6282V102.053H67.5135L63.8672 110.982H62.3942L58.7479 102.047H58.6332V111H56.8583V98.6364ZM75.9667 111.187C75.0531 111.187 74.2663 110.992 73.6063 110.602C72.9503 110.207 72.4432 109.654 72.085 108.941C71.7308 108.225 71.5537 107.386 71.5537 106.424C71.5537 105.474 71.7308 104.637 72.085 103.913C72.4432 103.188 72.9422 102.623 73.5821 102.216C74.2261 101.81 74.9787 101.607 75.8399 101.607C76.3631 101.607 76.8702 101.693 77.3612 101.866C77.8522 102.039 78.2929 102.311 78.6833 102.681C79.0737 103.051 79.3816 103.532 79.607 104.124C79.8324 104.712 79.945 105.426 79.945 106.267V106.907H72.574V105.555H78.1762C78.1762 105.08 78.0796 104.659 77.8865 104.293C77.6933 103.923 77.4216 103.631 77.0715 103.418C76.7253 103.204 76.3189 103.098 75.852 103.098C75.3449 103.098 74.9022 103.222 74.5239 103.472C74.1496 103.717 73.8598 104.039 73.6546 104.438C73.4533 104.832 73.3527 105.261 73.3527 105.724V106.78C73.3527 107.4 73.4614 107.927 73.6787 108.362C73.9001 108.797 74.2079 109.129 74.6024 109.358C74.9968 109.583 75.4576 109.696 75.9848 109.696C76.3269 109.696 76.6388 109.648 76.9205 109.551C77.2023 109.451 77.4458 109.302 77.651 109.104C77.8563 108.907 78.0132 108.664 78.1219 108.374L79.8303 108.682C79.6935 109.185 79.448 109.626 79.0938 110.004C78.7437 110.378 78.303 110.67 77.7718 110.879C77.2445 111.085 76.6428 111.187 75.9667 111.187ZM88.2322 105.585V107.148H83.2095V105.585H88.2322ZM83.7166 101.727V111H81.9478V101.727H83.7166ZM89.494 101.727V111H87.7312V101.727H89.494ZM97.4386 111V103.267H95.217C94.6897 103.267 94.2792 103.389 93.9854 103.635C93.6916 103.88 93.5447 104.202 93.5447 104.601C93.5447 104.995 93.6796 105.313 93.9492 105.555C94.2229 105.792 94.6052 105.911 95.0962 105.911H97.9638V107.372H95.0962C94.4121 107.372 93.8204 107.259 93.3214 107.034C92.8263 106.804 92.444 106.48 92.1744 106.062C91.9087 105.643 91.7759 105.148 91.7759 104.577C91.7759 103.993 91.9128 103.49 92.1864 103.067C92.4641 102.641 92.8606 102.311 93.3757 102.077C93.8949 101.844 94.5086 101.727 95.217 101.727H99.1349V111H97.4386ZM91.3533 111L93.9673 106.315H95.8146L93.2006 111H91.3533ZM103.306 108.471L107.393 101.727H109.337V111H107.569V104.251L103.5 111H101.538V101.727H103.306V108.471ZM106.621 98.5881H108.106C108.106 99.2682 107.864 99.8216 107.381 100.248C106.902 100.671 106.254 100.882 105.438 100.882C104.625 100.882 103.979 100.671 103.5 100.248C103.021 99.8216 102.781 99.2682 102.781 98.5881H104.26C104.26 98.8899 104.349 99.1576 104.526 99.391C104.703 99.6204 105.007 99.7351 105.438 99.7351C105.86 99.7351 106.162 99.6204 106.343 99.391C106.528 99.1616 106.621 98.8939 106.621 98.5881ZM123.828 101.727V109.521H125.186V113.988H123.405V111H116.263V101.727H118.032V109.442H122.065V101.727H123.828ZM127.187 111V101.727H131.033C132.079 101.727 132.908 101.951 133.52 102.397C134.132 102.84 134.437 103.442 134.437 104.202C134.437 104.746 134.264 105.176 133.918 105.494C133.572 105.812 133.113 106.026 132.542 106.134C132.956 106.183 133.337 106.307 133.683 106.509C134.029 106.706 134.307 106.971 134.516 107.305C134.729 107.639 134.836 108.038 134.836 108.501C134.836 108.992 134.709 109.426 134.456 109.805C134.202 110.179 133.834 110.473 133.351 110.686C132.872 110.895 132.294 111 131.618 111H127.187ZM128.883 109.491H131.618C132.065 109.491 132.415 109.384 132.669 109.171C132.922 108.958 133.049 108.668 133.049 108.301C133.049 107.871 132.922 107.533 132.669 107.287C132.415 107.038 132.065 106.913 131.618 106.913H128.883V109.491ZM128.883 105.591H131.051C131.389 105.591 131.679 105.543 131.92 105.446C132.166 105.349 132.353 105.213 132.481 105.036C132.614 104.854 132.681 104.641 132.681 104.396C132.681 104.037 132.534 103.758 132.24 103.556C131.946 103.355 131.544 103.255 131.033 103.255H128.883V105.591ZM140.812 111.187C139.899 111.187 139.112 110.992 138.452 110.602C137.796 110.207 137.289 109.654 136.931 108.941C136.576 108.225 136.399 107.386 136.399 106.424C136.399 105.474 136.576 104.637 136.931 103.913C137.289 103.188 137.788 102.623 138.428 102.216C139.072 101.81 139.824 101.607 140.686 101.607C141.209 101.607 141.716 101.693 142.207 101.866C142.698 102.039 143.139 102.311 143.529 102.681C143.919 103.051 144.227 103.532 144.453 104.124C144.678 104.712 144.791 105.426 144.791 106.267V106.907H137.42V105.555H143.022C143.022 105.08 142.925 104.659 142.732 104.293C142.539 103.923 142.267 103.631 141.917 103.418C141.571 103.204 141.165 103.098 140.698 103.098C140.191 103.098 139.748 103.222 139.37 103.472C138.995 103.717 138.706 104.039 138.5 104.438C138.299 104.832 138.198 105.261 138.198 105.724V106.78C138.198 107.4 138.307 107.927 138.524 108.362C138.746 108.797 139.054 109.129 139.448 109.358C139.842 109.583 140.303 109.696 140.831 109.696C141.173 109.696 141.485 109.648 141.766 109.551C142.048 109.451 142.291 109.302 142.497 109.104C142.702 108.907 142.859 108.664 142.968 108.374L144.676 108.682C144.539 109.185 144.294 109.626 143.94 110.004C143.589 110.378 143.149 110.67 142.617 110.879C142.09 111.085 141.489 111.187 140.812 111.187ZM145.975 103.285V101.727H153.799V103.285H150.775V111H149.012V103.285H145.975ZM157.975 111.205C157.388 111.205 156.857 111.097 156.382 110.879C155.907 110.658 155.53 110.338 155.253 109.919C154.979 109.501 154.842 108.988 154.842 108.38C154.842 107.857 154.943 107.426 155.144 107.088C155.345 106.75 155.617 106.482 155.959 106.285C156.301 106.088 156.684 105.939 157.106 105.838C157.529 105.738 157.959 105.661 158.398 105.609C158.953 105.545 159.404 105.492 159.75 105.452C160.096 105.408 160.348 105.337 160.505 105.241C160.662 105.144 160.74 104.987 160.74 104.77V104.728C160.74 104.2 160.591 103.792 160.294 103.502C160 103.212 159.561 103.067 158.978 103.067C158.37 103.067 157.891 103.202 157.541 103.472C157.195 103.738 156.955 104.033 156.822 104.359L155.126 103.973C155.327 103.41 155.621 102.955 156.007 102.609C156.398 102.259 156.847 102.005 157.354 101.848C157.861 101.687 158.394 101.607 158.953 101.607C159.324 101.607 159.716 101.651 160.131 101.739C160.549 101.824 160.94 101.981 161.302 102.21C161.668 102.44 161.968 102.768 162.201 103.194C162.435 103.617 162.551 104.166 162.551 104.842V111H160.789V109.732H160.716C160.599 109.966 160.424 110.195 160.191 110.42C159.958 110.646 159.658 110.833 159.291 110.982C158.925 111.131 158.487 111.205 157.975 111.205ZM158.368 109.756C158.867 109.756 159.293 109.658 159.648 109.461C160.006 109.263 160.277 109.006 160.463 108.688C160.652 108.366 160.746 108.022 160.746 107.656V106.46C160.682 106.525 160.557 106.585 160.372 106.641C160.191 106.694 159.984 106.74 159.75 106.78C159.517 106.816 159.289 106.851 159.068 106.883C158.847 106.911 158.662 106.935 158.513 106.955C158.163 107 157.843 107.074 157.553 107.179C157.267 107.283 157.038 107.434 156.865 107.631C156.696 107.825 156.611 108.082 156.611 108.404C156.611 108.851 156.776 109.189 157.106 109.418C157.436 109.644 157.857 109.756 158.368 109.756ZM42.7545 132.73C42.2675 132.73 41.8228 132.611 41.4204 132.374C41.0179 132.132 40.6959 131.81 40.4545 131.408C40.217 131.006 40.0983 130.561 40.0983 130.074C40.0983 129.583 40.217 129.138 40.4545 128.74C40.6959 128.337 41.0179 128.017 41.4204 127.78C41.8228 127.538 42.2675 127.418 42.7545 127.418C43.2455 127.418 43.6903 127.538 44.0887 127.78C44.4912 128.017 44.8111 128.337 45.0486 128.74C45.29 129.138 45.4108 129.583 45.4108 130.074C45.4108 130.561 45.29 131.006 45.0486 131.408C44.8111 131.81 44.4912 132.132 44.0887 132.374C43.6903 132.611 43.2455 132.73 42.7545 132.73ZM56.8583 122.636H59.1222L63.0582 132.247H63.2031L67.1392 122.636H69.4031V135H67.6282V126.053H67.5135L63.8672 134.982H62.3942L58.7479 126.047H58.6332V135H56.8583V122.636ZM75.9667 135.187C75.0531 135.187 74.2663 134.992 73.6063 134.602C72.9503 134.207 72.4432 133.654 72.085 132.941C71.7308 132.225 71.5537 131.386 71.5537 130.424C71.5537 129.474 71.7308 128.637 72.085 127.913C72.4432 127.188 72.9422 126.623 73.5821 126.216C74.2261 125.81 74.9787 125.607 75.8399 125.607C76.3631 125.607 76.8702 125.693 77.3612 125.866C77.8522 126.039 78.2929 126.311 78.6833 126.681C79.0737 127.051 79.3816 127.532 79.607 128.124C79.8324 128.712 79.945 129.426 79.945 130.267V130.907H72.574V129.555H78.1762C78.1762 129.08 78.0796 128.659 77.8865 128.293C77.6933 127.923 77.4216 127.631 77.0715 127.418C76.7253 127.204 76.3189 127.098 75.852 127.098C75.3449 127.098 74.9022 127.222 74.5239 127.472C74.1496 127.717 73.8598 128.039 73.6546 128.438C73.4533 128.832 73.3527 129.261 73.3527 129.724V130.78C73.3527 131.4 73.4614 131.927 73.6787 132.362C73.9001 132.797 74.2079 133.129 74.6024 133.358C74.9968 133.583 75.4576 133.696 75.9848 133.696C76.3269 133.696 76.6388 133.648 76.9205 133.551C77.2023 133.451 77.4458 133.302 77.651 133.104C77.8563 132.907 78.0132 132.664 78.1219 132.374L79.8303 132.682C79.6935 133.185 79.448 133.626 79.0938 134.004C78.7437 134.378 78.303 134.67 77.7718 134.879C77.2445 135.085 76.6428 135.187 75.9667 135.187ZM88.2322 129.585V131.148H83.2095V129.585H88.2322ZM83.7166 125.727V135H81.9478V125.727H83.7166ZM89.494 125.727V135H87.7312V125.727H89.494ZM97.4386 135V127.267H95.217C94.6897 127.267 94.2792 127.389 93.9854 127.635C93.6916 127.88 93.5447 128.202 93.5447 128.601C93.5447 128.995 93.6796 129.313 93.9492 129.555C94.2229 129.792 94.6052 129.911 95.0962 129.911H97.9638V131.372H95.0962C94.4121 131.372 93.8204 131.259 93.3214 131.034C92.8263 130.804 92.444 130.48 92.1744 130.062C91.9087 129.643 91.7759 129.148 91.7759 128.577C91.7759 127.993 91.9128 127.49 92.1864 127.067C92.4641 126.641 92.8606 126.311 93.3757 126.077C93.8949 125.844 94.5086 125.727 95.217 125.727H99.1349V135H97.4386ZM91.3533 135L93.9673 130.315H95.8146L93.2006 135H91.3533ZM103.306 132.471L107.393 125.727H109.337V135H107.569V128.251L103.5 135H101.538V125.727H103.306V132.471ZM106.621 122.588H108.106C108.106 123.268 107.864 123.822 107.381 124.248C106.902 124.671 106.254 124.882 105.438 124.882C104.625 124.882 103.979 124.671 103.5 124.248C103.021 123.822 102.781 123.268 102.781 122.588H104.26C104.26 122.89 104.349 123.158 104.526 123.391C104.703 123.62 105.007 123.735 105.438 123.735C105.86 123.735 106.162 123.62 106.343 123.391C106.528 123.162 106.621 122.894 106.621 122.588ZM116.263 125.727H118.032V133.436H121.238V125.727H123.006V133.436H126.212V125.727H127.981V135H116.263V125.727ZM130.391 138.477V125.727H132.154V127.23H132.305C132.41 127.037 132.56 126.814 132.758 126.56C132.955 126.307 133.229 126.085 133.579 125.896C133.929 125.703 134.392 125.607 134.967 125.607C135.716 125.607 136.384 125.796 136.971 126.174C137.559 126.552 138.02 127.098 138.354 127.81C138.692 128.522 138.861 129.38 138.861 130.382C138.861 131.384 138.694 132.243 138.36 132.96C138.026 133.672 137.567 134.221 136.983 134.608C136.4 134.99 135.734 135.181 134.985 135.181C134.422 135.181 133.961 135.087 133.603 134.897C133.249 134.708 132.971 134.487 132.77 134.233C132.568 133.98 132.414 133.754 132.305 133.557H132.196V138.477H130.391ZM132.16 130.364C132.16 131.016 132.255 131.587 132.444 132.078C132.633 132.569 132.907 132.953 133.265 133.231C133.623 133.505 134.062 133.642 134.581 133.642C135.12 133.642 135.571 133.499 135.933 133.213C136.295 132.923 136.569 132.531 136.754 132.036C136.943 131.541 137.038 130.983 137.038 130.364C137.038 129.752 136.945 129.203 136.76 128.716C136.579 128.229 136.305 127.844 135.939 127.562C135.577 127.281 135.124 127.14 134.581 127.14C134.058 127.14 133.615 127.275 133.253 127.544C132.894 127.814 132.623 128.19 132.438 128.673C132.253 129.156 132.16 129.72 132.16 130.364ZM142.652 132.471L146.739 125.727H148.683V135H146.914V128.251L142.845 135H140.883V125.727H142.652V132.471ZM155.1 138.157V122.636H156.905V138.157H155.1ZM155.1 135.187C154.444 135.187 153.847 135.074 153.307 134.849C152.768 134.62 152.303 134.294 151.913 133.871C151.522 133.449 151.221 132.943 151.007 132.356C150.798 131.768 150.693 131.118 150.693 130.406C150.693 129.685 150.798 129.031 151.007 128.444C151.221 127.856 151.522 127.351 151.913 126.929C152.303 126.506 152.768 126.18 153.307 125.951C153.847 125.721 154.444 125.607 155.1 125.607H155.547V135.187H155.1ZM155.1 133.666H155.354V127.128H155.1C154.666 127.128 154.287 127.216 153.965 127.393C153.643 127.567 153.376 127.806 153.162 128.112C152.949 128.414 152.788 128.762 152.68 129.156C152.575 129.551 152.523 129.967 152.523 130.406C152.523 130.993 152.617 131.535 152.806 132.03C152.995 132.521 153.281 132.917 153.664 133.219C154.046 133.517 154.525 133.666 155.1 133.666ZM156.905 135.187H156.453V125.607H156.905C157.561 125.607 158.159 125.721 158.698 125.951C159.238 126.18 159.7 126.506 160.087 126.929C160.477 127.351 160.777 127.856 160.986 128.444C161.2 129.031 161.306 129.685 161.306 130.406C161.306 131.118 161.2 131.768 160.986 132.356C160.777 132.943 160.477 133.449 160.087 133.871C159.7 134.294 159.238 134.62 158.698 134.849C158.159 135.074 157.561 135.187 156.905 135.187ZM156.905 133.666C157.34 133.666 157.718 133.581 158.04 133.412C158.362 133.239 158.63 133.002 158.843 132.7C159.057 132.394 159.215 132.046 159.32 131.656C159.425 131.261 159.477 130.845 159.477 130.406C159.477 129.822 159.383 129.283 159.193 128.788C159.008 128.289 158.724 127.888 158.342 127.587C157.96 127.281 157.481 127.128 156.905 127.128H156.646V133.666H156.905ZM162.195 127.285V125.727H170.019V127.285H166.995V135H165.232V127.285H162.195ZM173.287 128.915H175.979C177.114 128.915 177.987 129.196 178.599 129.76C179.211 130.323 179.517 131.05 179.517 131.939C179.517 132.519 179.38 133.04 179.106 133.503C178.833 133.966 178.432 134.332 177.905 134.602C177.378 134.867 176.736 135 175.979 135H171.928V125.727H173.697V133.442H175.979C176.498 133.442 176.925 133.308 177.259 133.038C177.593 132.764 177.76 132.416 177.76 131.994C177.76 131.547 177.593 131.183 177.259 130.901C176.925 130.615 176.498 130.472 175.979 130.472H173.287V128.915ZM180.833 135V125.727H182.638V135H180.833ZM42.7545 156.73C42.2675 156.73 41.8228 156.611 41.4204 156.374C41.0179 156.132 40.6959 155.81 40.4545 155.408C40.217 155.006 40.0983 154.561 40.0983 154.074C40.0983 153.583 40.217 153.138 40.4545 152.74C40.6959 152.337 41.0179 152.017 41.4204 151.78C41.8228 151.538 42.2675 151.418 42.7545 151.418C43.2455 151.418 43.6903 151.538 44.0887 151.78C44.4912 152.017 44.8111 152.337 45.0486 152.74C45.29 153.138 45.4108 153.583 45.4108 154.074C45.4108 154.561 45.29 155.006 45.0486 155.408C44.8111 155.81 44.4912 156.132 44.0887 156.374C43.6903 156.611 43.2455 156.73 42.7545 156.73ZM56.8583 159V146.636H61.386C62.2634 146.636 62.9898 146.781 63.5653 147.071C64.1409 147.357 64.5715 147.745 64.8572 148.236C65.143 148.723 65.2859 149.272 65.2859 149.884C65.2859 150.399 65.1913 150.834 65.0021 151.188C64.813 151.538 64.5594 151.82 64.2415 152.033C63.9276 152.243 63.5814 152.396 63.2031 152.492V152.613C63.6136 152.633 64.0141 152.766 64.4045 153.011C64.7989 153.253 65.1249 153.597 65.3825 154.044C65.64 154.49 65.7688 155.034 65.7688 155.674C65.7688 156.306 65.6199 156.873 65.3221 157.376C65.0283 157.875 64.5735 158.272 63.9577 158.565C63.342 158.855 62.5552 159 61.5973 159H56.8583ZM58.7237 157.4H61.4162C62.3097 157.4 62.9496 157.227 63.3359 156.881C63.7223 156.535 63.9155 156.102 63.9155 155.583C63.9155 155.193 63.8169 154.835 63.6197 154.509C63.4225 154.183 63.1407 153.923 62.7745 153.73C62.4123 153.537 61.9817 153.44 61.4826 153.44H58.7237V157.4ZM58.7237 151.985H61.223C61.6416 151.985 62.0179 151.905 62.3519 151.744C62.69 151.583 62.9576 151.357 63.1548 151.067C63.3561 150.774 63.4567 150.428 63.4567 150.029C63.4567 149.518 63.2776 149.089 62.9194 148.743C62.5612 148.397 62.0118 148.224 61.2713 148.224H58.7237V151.985ZM71.7424 159.187C70.8449 159.187 70.0721 158.984 69.4242 158.577C68.7802 158.167 68.2852 157.601 67.9391 156.881C67.593 156.161 67.4199 155.336 67.4199 154.406C67.4199 153.464 67.597 152.633 67.9512 151.913C68.3053 151.188 68.8044 150.623 69.4483 150.216C70.0923 149.81 70.8509 149.607 71.7243 149.607C72.4286 149.607 73.0564 149.737 73.6078 149.999C74.1592 150.257 74.6039 150.619 74.9419 151.086C75.284 151.552 75.4873 152.098 75.5517 152.722H73.7949C73.6983 152.287 73.477 151.913 73.1309 151.599C72.7888 151.285 72.33 151.128 71.7544 151.128C71.2514 151.128 70.8107 151.261 70.4324 151.526C70.0581 151.788 69.7663 152.162 69.557 152.649C69.3477 153.132 69.2431 153.704 69.2431 154.364C69.2431 155.04 69.3457 155.623 69.551 156.114C69.7562 156.605 70.046 156.986 70.4203 157.255C70.7986 157.525 71.2433 157.66 71.7544 157.66C72.0965 157.66 72.4064 157.597 72.6841 157.473C72.9659 157.344 73.2013 157.161 73.3904 156.923C73.5836 156.686 73.7185 156.4 73.7949 156.066H75.5517C75.4873 156.666 75.2921 157.201 74.9661 157.672C74.6401 158.143 74.2034 158.513 73.6561 158.783C73.1127 159.052 72.4748 159.187 71.7424 159.187ZM76.7802 151.285V149.727H84.604V151.285H81.5795V159H79.8168V151.285H76.7802ZM88.7801 159.205C88.1925 159.205 87.6613 159.097 87.1863 158.879C86.7114 158.658 86.3351 158.338 86.0574 157.919C85.7838 157.501 85.6469 156.988 85.6469 156.38C85.6469 155.857 85.7475 155.426 85.9488 155.088C86.15 154.75 86.4217 154.482 86.7638 154.285C87.1059 154.088 87.4882 153.939 87.9108 153.838C88.3334 153.738 88.764 153.661 89.2027 153.609C89.7581 153.545 90.2088 153.492 90.555 153.452C90.9011 153.408 91.1526 153.337 91.3096 153.241C91.4665 153.144 91.545 152.987 91.545 152.77V152.728C91.545 152.2 91.3961 151.792 91.0983 151.502C90.8045 151.212 90.3658 151.067 89.7822 151.067C89.1745 151.067 88.6956 151.202 88.3454 151.472C87.9993 151.738 87.7599 152.033 87.627 152.359L85.9307 151.973C86.1319 151.41 86.4257 150.955 86.8121 150.609C87.2024 150.259 87.6512 150.005 88.1583 149.848C88.6654 149.687 89.1987 149.607 89.7581 149.607C90.1283 149.607 90.5207 149.651 90.9353 149.739C91.3538 149.824 91.7442 149.981 92.1064 150.21C92.4727 150.44 92.7725 150.768 93.0059 151.194C93.2394 151.617 93.3561 152.166 93.3561 152.842V159H91.5933V157.732H91.5209C91.4041 157.966 91.2291 158.195 90.9956 158.42C90.7622 158.646 90.4624 158.833 90.0961 158.982C89.7299 159.131 89.2912 159.205 88.7801 159.205ZM89.1725 157.756C89.6715 157.756 90.0982 157.658 90.4523 157.461C90.8105 157.263 91.0822 157.006 91.2673 156.688C91.4565 156.366 91.551 156.022 91.551 155.656V154.46C91.4867 154.525 91.3619 154.585 91.1768 154.641C90.9957 154.694 90.7884 154.74 90.555 154.78C90.3215 154.816 90.0941 154.851 89.8728 154.883C89.6514 154.911 89.4663 154.935 89.3174 154.955C88.9672 155 88.6473 155.074 88.3575 155.179C88.0718 155.283 87.8424 155.434 87.6693 155.631C87.5003 155.825 87.4157 156.082 87.4157 156.404C87.4157 156.851 87.5808 157.189 87.9108 157.418C88.2408 157.644 88.6614 157.756 89.1725 157.756ZM95.7603 159V149.727H99.6058C100.652 149.727 101.481 149.951 102.093 150.397C102.705 150.84 103.011 151.442 103.011 152.202C103.011 152.746 102.838 153.176 102.491 153.494C102.145 153.812 101.687 154.026 101.115 154.134C101.53 154.183 101.91 154.307 102.256 154.509C102.602 154.706 102.88 154.971 103.089 155.305C103.302 155.639 103.409 156.038 103.409 156.501C103.409 156.992 103.282 157.426 103.029 157.805C102.775 158.179 102.407 158.473 101.924 158.686C101.445 158.895 100.868 159 100.191 159H95.7603ZM97.4567 157.491H100.191C100.638 157.491 100.988 157.384 101.242 157.171C101.495 156.958 101.622 156.668 101.622 156.301C101.622 155.871 101.495 155.533 101.242 155.287C100.988 155.038 100.638 154.913 100.191 154.913H97.4567V157.491ZM97.4567 153.591H99.6239C99.962 153.591 100.252 153.543 100.493 153.446C100.739 153.349 100.926 153.213 101.055 153.036C101.188 152.854 101.254 152.641 101.254 152.396C101.254 152.037 101.107 151.758 100.813 151.556C100.519 151.355 100.117 151.255 99.6058 151.255H97.4567V153.591ZM104.659 159L104.653 157.436H104.985C105.242 157.436 105.458 157.382 105.631 157.273C105.808 157.161 105.953 156.972 106.065 156.706C106.178 156.44 106.265 156.074 106.325 155.607C106.385 155.136 106.43 154.545 106.458 153.832L106.621 149.727H113.092V159H111.324V151.285H108.293L108.148 154.436C108.112 155.201 108.033 155.869 107.913 156.44C107.796 157.012 107.625 157.489 107.4 157.871C107.174 158.249 106.884 158.533 106.53 158.722C106.176 158.907 105.745 159 105.238 159H104.659ZM121.029 159V151.267H118.808C118.281 151.267 117.87 151.389 117.576 151.635C117.282 151.88 117.136 152.202 117.136 152.601C117.136 152.995 117.27 153.313 117.54 153.555C117.814 153.792 118.196 153.911 118.687 153.911H121.555V155.372H118.687C118.003 155.372 117.411 155.259 116.912 155.034C116.417 154.804 116.035 154.48 115.765 154.062C115.5 153.643 115.367 153.148 115.367 152.577C115.367 151.993 115.504 151.49 115.777 151.067C116.055 150.641 116.451 150.311 116.967 150.077C117.486 149.844 118.099 149.727 118.808 149.727H122.726V159H121.029ZM114.944 159L117.558 154.315H119.405L116.791 159H114.944ZM126.897 156.471L130.984 149.727H132.928V159H131.159V152.251L127.09 159H125.128V149.727H126.897V156.471ZM130.212 146.588H131.697C131.697 147.268 131.455 147.822 130.972 148.248C130.493 148.671 129.845 148.882 129.028 148.882C128.215 148.882 127.569 148.671 127.09 148.248C126.612 147.822 126.372 147.268 126.372 146.588H127.851C127.851 146.89 127.94 147.158 128.117 147.391C128.294 147.62 128.598 147.735 129.028 147.735C129.451 147.735 129.753 147.62 129.934 147.391C130.119 147.162 130.212 146.894 130.212 146.588ZM147.008 146.274L147.756 147.415C147.479 147.669 147.163 147.85 146.809 147.958C146.458 148.063 146.054 148.129 145.595 148.158C145.136 148.182 144.611 148.204 144.02 148.224C143.351 148.244 142.802 148.389 142.371 148.659C141.941 148.924 141.609 149.319 141.375 149.842C141.146 150.361 140.997 151.013 140.929 151.798H141.043C141.345 151.222 141.764 150.792 142.299 150.506C142.838 150.22 143.444 150.077 144.116 150.077C144.865 150.077 145.531 150.248 146.114 150.591C146.698 150.933 147.157 151.434 147.491 152.094C147.829 152.75 147.998 153.553 147.998 154.502C147.998 155.464 147.821 156.295 147.467 156.996C147.116 157.696 146.621 158.237 145.982 158.62C145.346 158.998 144.595 159.187 143.73 159.187C142.864 159.187 142.11 158.992 141.466 158.602C140.826 158.207 140.329 157.624 139.975 156.851C139.625 156.078 139.45 155.124 139.45 153.989V153.072C139.45 150.951 139.828 149.355 140.585 148.284C141.341 147.214 142.472 146.665 143.977 146.636C144.464 146.624 144.899 146.622 145.281 146.63C145.664 146.634 145.998 146.616 146.283 146.576C146.573 146.532 146.815 146.431 147.008 146.274ZM143.736 157.672C144.239 157.672 144.672 157.545 145.034 157.292C145.4 157.034 145.682 156.67 145.879 156.199C146.076 155.728 146.175 155.173 146.175 154.533C146.175 153.905 146.076 153.372 145.879 152.933C145.682 152.494 145.4 152.16 145.034 151.931C144.667 151.697 144.229 151.581 143.718 151.581C143.339 151.581 143.001 151.647 142.703 151.78C142.406 151.909 142.15 152.1 141.937 152.353C141.728 152.607 141.565 152.917 141.448 153.283C141.335 153.645 141.275 154.062 141.267 154.533C141.267 155.491 141.486 156.253 141.925 156.821C142.367 157.388 142.971 157.672 143.736 157.672ZM149.284 159L149.278 157.436H149.61C149.867 157.436 150.083 157.382 150.256 157.273C150.433 157.161 150.578 156.972 150.69 156.706C150.803 156.44 150.89 156.074 150.95 155.607C151.01 155.136 151.055 154.545 151.083 153.832L151.246 149.727H157.717V159H155.949V151.285H152.918L152.773 154.436C152.737 155.201 152.658 155.869 152.538 156.44C152.421 157.012 152.25 157.489 152.025 157.871C151.799 158.249 151.509 158.533 151.155 158.722C150.801 158.907 150.37 159 149.863 159H149.284ZM164.03 159.187C163.161 159.187 162.402 158.988 161.755 158.589C161.107 158.191 160.603 157.634 160.245 156.917C159.887 156.201 159.708 155.364 159.708 154.406C159.708 153.444 159.887 152.603 160.245 151.882C160.603 151.162 161.107 150.603 161.755 150.204C162.402 149.806 163.161 149.607 164.03 149.607C164.9 149.607 165.658 149.806 166.306 150.204C166.954 150.603 167.457 151.162 167.816 151.882C168.174 152.603 168.353 153.444 168.353 154.406C168.353 155.364 168.174 156.201 167.816 156.917C167.457 157.634 166.954 158.191 166.306 158.589C165.658 158.988 164.9 159.187 164.03 159.187ZM164.036 157.672C164.6 157.672 165.067 157.523 165.437 157.225C165.807 156.927 166.081 156.531 166.258 156.036C166.439 155.541 166.53 154.996 166.53 154.4C166.53 153.808 166.439 153.265 166.258 152.77C166.081 152.271 165.807 151.87 165.437 151.569C165.067 151.267 164.6 151.116 164.036 151.116C163.469 151.116 162.998 151.267 162.624 151.569C162.254 151.87 161.978 152.271 161.797 152.77C161.62 153.265 161.531 153.808 161.531 154.4C161.531 154.996 161.62 155.541 161.797 156.036C161.978 156.531 162.254 156.927 162.624 157.225C162.998 157.523 163.469 157.672 164.036 157.672ZM170.368 159V149.727H172.173V153.615H173.042L176.103 149.727H178.336L174.744 154.237L178.379 159H176.139L173.344 155.293H172.173V159H170.368ZM42.7545 180.73C42.2675 180.73 41.8228 180.611 41.4204 180.374C41.0179 180.132 40.6959 179.81 40.4545 179.408C40.217 179.006 40.0983 178.561 40.0983 178.074C40.0983 177.583 40.217 177.138 40.4545 176.74C40.6959 176.337 41.0179 176.017 41.4204 175.78C41.8228 175.538 42.2675 175.418 42.7545 175.418C43.2455 175.418 43.6903 175.538 44.0887 175.78C44.4912 176.017 44.8111 176.337 45.0486 176.74C45.29 177.138 45.4108 177.583 45.4108 178.074C45.4108 178.561 45.29 179.006 45.0486 179.408C44.8111 179.81 44.4912 180.132 44.0887 180.374C43.6903 180.611 43.2455 180.73 42.7545 180.73ZM67.1271 174.657H65.2436C65.1712 174.254 65.0363 173.9 64.8391 173.594C64.6419 173.289 64.4005 173.029 64.1147 172.816C63.829 172.602 63.509 172.441 63.1548 172.333C62.8047 172.224 62.4324 172.17 62.038 172.17C61.3256 172.17 60.6877 172.349 60.1243 172.707C59.5649 173.065 59.1222 173.59 58.7962 174.283C58.4742 174.975 58.3132 175.82 58.3132 176.818C58.3132 177.824 58.4742 178.674 58.7962 179.366C59.1222 180.058 59.5669 180.581 60.1303 180.935C60.6938 181.29 61.3277 181.467 62.032 181.467C62.4223 181.467 62.7926 181.414 63.1428 181.31C63.4969 181.201 63.8169 181.042 64.1026 180.833C64.3884 180.623 64.6299 180.368 64.8271 180.066C65.0283 179.76 65.1671 179.41 65.2436 179.016L67.1271 179.022C67.0265 179.629 66.8313 180.189 66.5415 180.7C66.2558 181.207 65.8875 181.646 65.4368 182.016C64.9901 182.382 64.4789 182.666 63.9034 182.867C63.3279 183.068 62.7 183.169 62.0199 183.169C60.9493 183.169 59.9955 182.915 59.1584 182.408C58.3213 181.897 57.6612 181.167 57.1783 180.217C56.6993 179.267 56.4599 178.134 56.4599 176.818C56.4599 175.498 56.7013 174.365 57.1843 173.419C57.6673 172.47 58.3273 171.741 59.1644 171.234C60.0015 170.723 60.9534 170.467 62.0199 170.467C62.6759 170.467 63.2876 170.562 63.8551 170.751C64.4266 170.936 64.9397 171.21 65.3945 171.572C65.8493 171.93 66.2256 172.369 66.5234 172.888C66.8213 173.403 67.0225 173.993 67.1271 174.657ZM73.1203 183.187C72.251 183.187 71.4923 182.988 70.8444 182.589C70.1964 182.191 69.6933 181.634 69.3351 180.917C68.9769 180.201 68.7979 179.364 68.7979 178.406C68.7979 177.444 68.9769 176.603 69.3351 175.882C69.6933 175.162 70.1964 174.603 70.8444 174.204C71.4923 173.806 72.251 173.607 73.1203 173.607C73.9896 173.607 74.7483 173.806 75.3962 174.204C76.0442 174.603 76.5473 175.162 76.9055 175.882C77.2636 176.603 77.4427 177.444 77.4427 178.406C77.4427 179.364 77.2636 180.201 76.9055 180.917C76.5473 181.634 76.0442 182.191 75.3962 182.589C74.7483 182.988 73.9896 183.187 73.1203 183.187ZM73.1263 181.672C73.6898 181.672 74.1566 181.523 74.5269 181.225C74.8972 180.927 75.1708 180.531 75.3479 180.036C75.529 179.541 75.6196 178.996 75.6196 178.4C75.6196 177.808 75.529 177.265 75.3479 176.77C75.1708 176.271 74.8972 175.87 74.5269 175.569C74.1566 175.267 73.6898 175.116 73.1263 175.116C72.5589 175.116 72.088 175.267 71.7137 175.569C71.3434 175.87 71.0677 176.271 70.8866 176.77C70.7095 177.265 70.621 177.808 70.621 178.4C70.621 178.996 70.7095 179.541 70.8866 180.036C71.0677 180.531 71.3434 180.927 71.7137 181.225C72.088 181.523 72.5589 181.672 73.1263 181.672ZM78.9082 180.549H80.7555C80.7797 180.927 80.9507 181.219 81.2686 181.424C81.5906 181.63 82.0072 181.732 82.5183 181.732C83.0375 181.732 83.4802 181.622 83.8464 181.4C84.2127 181.175 84.3958 180.827 84.3958 180.356C84.3958 180.074 84.3253 179.829 84.1845 179.619C84.0476 179.406 83.8525 179.241 83.5989 179.124C83.3494 179.008 83.0536 178.949 82.7115 178.949H81.2022V177.531H82.7115C83.2226 177.531 83.6049 177.414 83.8585 177.18C84.112 176.947 84.2388 176.655 84.2388 176.305C84.2388 175.927 84.102 175.623 83.8283 175.393C83.5587 175.16 83.1824 175.043 82.6994 175.043C82.2084 175.043 81.7999 175.154 81.4739 175.375C81.1479 175.593 80.9769 175.874 80.9608 176.221H79.1376C79.1497 175.701 79.3066 175.247 79.6085 174.856C79.9144 174.462 80.3249 174.156 80.84 173.939C81.3592 173.717 81.9488 173.607 82.6088 173.607C83.2971 173.607 83.8927 173.717 84.3958 173.939C84.8989 174.16 85.2872 174.466 85.5609 174.856C85.8386 175.247 85.9775 175.695 85.9775 176.202C85.9775 176.714 85.8245 177.132 85.5186 177.458C85.2168 177.78 84.8224 178.011 84.3354 178.152V178.249C84.6936 178.273 85.0115 178.382 85.2892 178.575C85.5669 178.768 85.7843 179.024 85.9412 179.342C86.0982 179.66 86.1767 180.02 86.1767 180.422C86.1767 180.99 86.0197 181.481 85.7058 181.895C85.3959 182.31 84.9653 182.63 84.4139 182.855C83.8665 183.076 83.2407 183.187 82.5364 183.187C81.8522 183.187 81.2385 183.08 80.6951 182.867C80.1558 182.65 79.7272 182.344 79.4093 181.95C79.0953 181.555 78.9283 181.088 78.9082 180.549ZM87.135 185.674V181.436H87.8896C88.0828 181.259 88.2458 181.048 88.3786 180.803C88.5155 180.557 88.6302 180.265 88.7227 179.927C88.8193 179.589 88.8998 179.195 88.9642 178.744C89.0286 178.289 89.085 177.77 89.1333 177.186L89.423 173.727H95.7256V181.436H97.1503V185.674H95.3875V183H88.922V185.674H87.135ZM89.8215 181.436H93.9628V175.273H91.0409L90.8477 177.186C90.7552 178.16 90.6385 179.006 90.4976 179.722C90.3567 180.434 90.1314 181.006 89.8215 181.436ZM101.613 183.205C101.026 183.205 100.494 183.097 100.019 182.879C99.5444 182.658 99.1681 182.338 98.8904 181.919C98.6168 181.501 98.4799 180.988 98.4799 180.38C98.4799 179.857 98.5806 179.426 98.7818 179.088C98.983 178.75 99.2547 178.482 99.5968 178.285C99.9389 178.088 100.321 177.939 100.744 177.838C101.166 177.738 101.597 177.661 102.036 177.609C102.591 177.545 103.042 177.492 103.388 177.452C103.734 177.408 103.986 177.337 104.143 177.241C104.3 177.144 104.378 176.987 104.378 176.77V176.728C104.378 176.2 104.229 175.792 103.931 175.502C103.637 175.212 103.199 175.067 102.615 175.067C102.008 175.067 101.529 175.202 101.178 175.472C100.832 175.738 100.593 176.033 100.46 176.359L98.7637 175.973C98.9649 175.41 99.2587 174.955 99.6451 174.609C100.035 174.259 100.484 174.005 100.991 173.848C101.498 173.687 102.032 173.607 102.591 173.607C102.961 173.607 103.354 173.651 103.768 173.739C104.187 173.824 104.577 173.981 104.939 174.21C105.306 174.44 105.606 174.768 105.839 175.194C106.072 175.617 106.189 176.166 106.189 176.842V183H104.426V181.732H104.354C104.237 181.966 104.062 182.195 103.829 182.42C103.595 182.646 103.295 182.833 102.929 182.982C102.563 183.131 102.124 183.205 101.613 183.205ZM102.006 181.756C102.505 181.756 102.931 181.658 103.285 181.461C103.644 181.263 103.915 181.006 104.1 180.688C104.289 180.366 104.384 180.022 104.384 179.656V178.46C104.32 178.525 104.195 178.585 104.01 178.641C103.829 178.694 103.621 178.74 103.388 178.78C103.155 178.816 102.927 178.851 102.706 178.883C102.484 178.911 102.299 178.935 102.15 178.955C101.8 179 101.48 179.074 101.191 179.179C100.905 179.283 100.675 179.434 100.502 179.631C100.333 179.825 100.249 180.082 100.249 180.404C100.249 180.851 100.414 181.189 100.744 181.418C101.074 181.644 101.494 181.756 102.006 181.756ZM108.593 183V173.727H112.439C113.485 173.727 114.314 173.951 114.926 174.397C115.538 174.84 115.844 175.442 115.844 176.202C115.844 176.746 115.671 177.176 115.324 177.494C114.978 177.812 114.52 178.026 113.948 178.134C114.363 178.183 114.743 178.307 115.089 178.509C115.435 178.706 115.713 178.971 115.922 179.305C116.135 179.639 116.242 180.038 116.242 180.501C116.242 180.992 116.115 181.426 115.862 181.805C115.608 182.179 115.24 182.473 114.757 182.686C114.278 182.895 113.701 183 113.024 183H108.593ZM110.29 181.491H113.024C113.471 181.491 113.821 181.384 114.075 181.171C114.328 180.958 114.455 180.668 114.455 180.301C114.455 179.871 114.328 179.533 114.075 179.287C113.821 179.038 113.471 178.913 113.024 178.913H110.29V181.491ZM110.29 177.591H112.457C112.795 177.591 113.085 177.543 113.326 177.446C113.572 177.349 113.759 177.213 113.888 177.036C114.021 176.854 114.087 176.641 114.087 176.396C114.087 176.037 113.94 175.758 113.646 175.556C113.352 175.355 112.95 175.255 112.439 175.255H110.29V177.591ZM120.921 183.205C120.333 183.205 119.802 183.097 119.327 182.879C118.852 182.658 118.476 182.338 118.198 181.919C117.924 181.501 117.788 180.988 117.788 180.38C117.788 179.857 117.888 179.426 118.089 179.088C118.291 178.75 118.562 178.482 118.904 178.285C119.246 178.088 119.629 177.939 120.051 177.838C120.474 177.738 120.905 177.661 121.343 177.609C121.899 177.545 122.349 177.492 122.696 177.452C123.042 177.408 123.293 177.337 123.45 177.241C123.607 177.144 123.686 176.987 123.686 176.77V176.728C123.686 176.2 123.537 175.792 123.239 175.502C122.945 175.212 122.506 175.067 121.923 175.067C121.315 175.067 120.836 175.202 120.486 175.472C120.14 175.738 119.9 176.033 119.768 176.359L118.071 175.973C118.273 175.41 118.566 174.955 118.953 174.609C119.343 174.259 119.792 174.005 120.299 173.848C120.806 173.687 121.339 173.607 121.899 173.607C122.269 173.607 122.661 173.651 123.076 173.739C123.494 173.824 123.885 173.981 124.247 174.21C124.613 174.44 124.913 174.768 125.147 175.194C125.38 175.617 125.497 176.166 125.497 176.842V183H123.734V181.732H123.661C123.545 181.966 123.37 182.195 123.136 182.42C122.903 182.646 122.603 182.833 122.237 182.982C121.871 183.131 121.432 183.205 120.921 183.205ZM121.313 181.756C121.812 181.756 122.239 181.658 122.593 181.461C122.951 181.263 123.223 181.006 123.408 180.688C123.597 180.366 123.692 180.022 123.692 179.656V178.46C123.627 178.525 123.503 178.585 123.317 178.641C123.136 178.694 122.929 178.74 122.696 178.78C122.462 178.816 122.235 178.851 122.013 178.883C121.792 178.911 121.607 178.935 121.458 178.955C121.108 179 120.788 179.074 120.498 179.179C120.212 179.283 119.983 179.434 119.81 179.631C119.641 179.825 119.556 180.082 119.556 180.404C119.556 180.851 119.721 181.189 120.051 181.418C120.381 181.644 120.802 181.756 121.313 181.756ZM129.67 180.471L133.757 173.727H135.701V183H133.932V176.251L129.863 183H127.901V173.727H129.67V180.471ZM132.984 170.588H134.469C134.469 171.268 134.228 171.822 133.745 172.248C133.266 172.671 132.618 172.882 131.801 172.882C130.988 172.882 130.342 172.671 129.863 172.248C129.384 171.822 129.145 171.268 129.145 170.588H130.624C130.624 170.89 130.712 171.158 130.889 171.391C131.066 171.62 131.37 171.735 131.801 171.735C132.223 171.735 132.525 171.62 132.706 171.391C132.891 171.162 132.984 170.894 132.984 170.588ZM150.07 173.727V183H148.307V173.727H150.07ZM149.303 178.032V179.589C149.026 179.702 148.732 179.802 148.422 179.891C148.112 179.975 147.786 180.042 147.444 180.09C147.102 180.138 146.746 180.163 146.375 180.163C145.228 180.163 144.317 179.883 143.641 179.324C142.965 178.76 142.627 177.899 142.627 176.74V173.709H144.383V176.74C144.383 177.178 144.464 177.535 144.625 177.808C144.786 178.082 145.015 178.283 145.313 178.412C145.611 178.541 145.965 178.605 146.375 178.605C146.919 178.605 147.42 178.555 147.879 178.454C148.341 178.35 148.816 178.209 149.303 178.032ZM155.17 183.205C154.582 183.205 154.051 183.097 153.576 182.879C153.101 182.658 152.725 182.338 152.447 181.919C152.173 181.501 152.037 180.988 152.037 180.38C152.037 179.857 152.137 179.426 152.338 179.088C152.54 178.75 152.811 178.482 153.153 178.285C153.496 178.088 153.878 177.939 154.3 177.838C154.723 177.738 155.154 177.661 155.592 177.609C156.148 177.545 156.598 177.492 156.945 177.452C157.291 177.408 157.542 177.337 157.699 177.241C157.856 177.144 157.935 176.987 157.935 176.77V176.728C157.935 176.2 157.786 175.792 157.488 175.502C157.194 175.212 156.755 175.067 156.172 175.067C155.564 175.067 155.085 175.202 154.735 175.472C154.389 175.738 154.15 176.033 154.017 176.359L152.32 175.973C152.522 175.41 152.815 174.955 153.202 174.609C153.592 174.259 154.041 174.005 154.548 173.848C155.055 173.687 155.588 173.607 156.148 173.607C156.518 173.607 156.91 173.651 157.325 173.739C157.743 173.824 158.134 173.981 158.496 174.21C158.862 174.44 159.162 174.768 159.396 175.194C159.629 175.617 159.746 176.166 159.746 176.842V183H157.983V181.732H157.911C157.794 181.966 157.619 182.195 157.385 182.42C157.152 182.646 156.852 182.833 156.486 182.982C156.12 183.131 155.681 183.205 155.17 183.205ZM155.562 181.756C156.061 181.756 156.488 181.658 156.842 181.461C157.2 181.263 157.472 181.006 157.657 180.688C157.846 180.366 157.941 180.022 157.941 179.656V178.46C157.876 178.525 157.752 178.585 157.566 178.641C157.385 178.694 157.178 178.74 156.945 178.78C156.711 178.816 156.484 178.851 156.262 178.883C156.041 178.911 155.856 178.935 155.707 178.955C155.357 179 155.037 179.074 154.747 179.179C154.461 179.283 154.232 179.434 154.059 179.631C153.89 179.825 153.805 180.082 153.805 180.404C153.805 180.851 153.97 181.189 154.3 181.418C154.63 181.644 155.051 181.756 155.562 181.756ZM162.15 186.477V173.727H163.913V175.23H164.064C164.168 175.037 164.319 174.814 164.516 174.56C164.714 174.307 164.987 174.085 165.337 173.896C165.688 173.703 166.15 173.607 166.726 173.607C167.475 173.607 168.143 173.796 168.73 174.174C169.318 174.552 169.779 175.098 170.113 175.81C170.451 176.522 170.62 177.38 170.62 178.382C170.62 179.384 170.453 180.243 170.119 180.96C169.785 181.672 169.326 182.221 168.742 182.608C168.159 182.99 167.493 183.181 166.744 183.181C166.181 183.181 165.72 183.087 165.362 182.897C165.007 182.708 164.73 182.487 164.528 182.233C164.327 181.98 164.172 181.754 164.064 181.557H163.955V186.477H162.15ZM163.919 178.364C163.919 179.016 164.013 179.587 164.203 180.078C164.392 180.569 164.665 180.953 165.024 181.231C165.382 181.505 165.82 181.642 166.34 181.642C166.879 181.642 167.33 181.499 167.692 181.213C168.054 180.923 168.328 180.531 168.513 180.036C168.702 179.541 168.797 178.983 168.797 178.364C168.797 177.752 168.704 177.203 168.519 176.716C168.338 176.229 168.064 175.844 167.698 175.562C167.336 175.281 166.883 175.14 166.34 175.14C165.816 175.14 165.374 175.275 165.011 175.544C164.653 175.814 164.382 176.19 164.196 176.673C164.011 177.156 163.919 177.72 163.919 178.364ZM171.525 175.285V173.727H179.349V175.285H176.325V183H174.562V175.285H171.525ZM182.617 176.915H185.309C186.444 176.915 187.317 177.196 187.929 177.76C188.541 178.323 188.847 179.05 188.847 179.939C188.847 180.519 188.71 181.04 188.436 181.503C188.163 181.966 187.762 182.332 187.235 182.602C186.708 182.867 186.066 183 185.309 183H181.258V173.727H183.027V181.442H185.309C185.828 181.442 186.255 181.308 186.589 181.038C186.923 180.764 187.09 180.416 187.09 179.994C187.09 179.547 186.923 179.183 186.589 178.901C186.255 178.615 185.828 178.472 185.309 178.472H182.617V176.915ZM190.163 183V173.727H191.968V183H190.163Z" fill="black"/>
<g filter="url(#filter2_d_319_2361)">
<rect x="310" y="22" width="85" height="52" rx="26" fill="white" shape-rendering="crispEdges"/>
<path d="M324.805 60.2294C324.145 60.2294 323.578 59.996 323.103 59.5291C322.628 59.0542 322.391 58.4827 322.391 57.8146C322.391 57.1546 322.628 56.5911 323.103 56.1243C323.578 55.6494 324.145 55.4119 324.805 55.4119C325.465 55.4119 326.033 55.6494 326.508 56.1243C326.983 56.5911 327.22 57.1546 327.22 57.8146C327.22 58.2573 327.107 58.6638 326.882 59.0341C326.665 59.3963 326.375 59.6861 326.013 59.9034C325.651 60.1207 325.248 60.2294 324.805 60.2294ZM332.056 66.9545V41.4545H335.581V44.4609H335.883C336.092 44.0746 336.394 43.6278 336.789 43.1207C337.183 42.6136 337.73 42.1709 338.431 41.7926C339.131 41.4062 340.057 41.2131 341.208 41.2131C342.705 41.2131 344.041 41.5914 345.216 42.348C346.391 43.1046 347.313 44.1953 347.981 45.62C348.657 47.0447 348.995 48.7592 348.995 50.7635C348.995 52.7678 348.661 54.4863 347.993 55.919C347.325 57.3437 346.408 58.4425 345.24 59.2152C344.073 59.9799 342.741 60.3622 341.244 60.3622C340.117 60.3622 339.195 60.1731 338.479 59.7947C337.771 59.4164 337.215 58.9737 336.813 58.4666C336.41 57.9595 336.1 57.5088 335.883 57.1143H335.666V66.9545H332.056ZM335.593 50.7273C335.593 52.0312 335.783 53.1742 336.161 54.1562C336.539 55.1383 337.087 55.907 337.803 56.4624C338.519 57.0097 339.397 57.2834 340.435 57.2834C341.514 57.2834 342.415 56.9976 343.14 56.4261C343.864 55.8466 344.411 55.0618 344.782 54.0717C345.16 53.0817 345.349 51.9669 345.349 50.7273C345.349 49.5038 345.164 48.4051 344.794 47.4311C344.431 46.4571 343.884 45.6884 343.152 45.125C342.427 44.5616 341.522 44.2798 340.435 44.2798C339.389 44.2798 338.503 44.5495 337.779 45.0888C337.062 45.6281 336.519 46.3807 336.149 47.3466C335.779 48.3125 335.593 49.4394 335.593 50.7273ZM359.983 60.3622C358.485 60.3622 357.149 59.9799 355.974 59.2152C354.807 58.4425 353.889 57.3437 353.221 55.919C352.561 54.4863 352.231 52.7678 352.231 50.7635C352.231 48.7592 352.565 47.0447 353.233 45.62C353.909 44.1953 354.835 43.1046 356.01 42.348C357.185 41.5914 358.518 41.2131 360.007 41.2131C361.158 41.2131 362.083 41.4062 362.784 41.7926C363.492 42.1709 364.039 42.6136 364.426 43.1207C364.82 43.6278 365.126 44.0746 365.343 44.4609H365.561V35.2727H369.171V60H365.645V57.1143H365.343C365.126 57.5088 364.812 57.9595 364.402 58.4666C363.999 58.9737 363.444 59.4164 362.735 59.7947C362.027 60.1731 361.109 60.3622 359.983 60.3622ZM360.779 57.2834C361.818 57.2834 362.695 57.0097 363.412 56.4624C364.136 55.907 364.683 55.1383 365.054 54.1562C365.432 53.1742 365.621 52.0312 365.621 50.7273C365.621 49.4394 365.436 48.3125 365.066 47.3466C364.695 46.3807 364.152 45.6281 363.436 45.0888C362.719 44.5495 361.834 44.2798 360.779 44.2798C359.693 44.2798 358.787 44.5616 358.063 45.125C357.338 45.6884 356.791 46.4571 356.421 47.4311C356.059 48.4051 355.877 49.5038 355.877 50.7273C355.877 51.9669 356.063 53.0817 356.433 54.0717C356.803 55.0618 357.35 55.8466 358.075 56.4261C358.807 56.9976 359.709 57.2834 360.779 57.2834ZM383.149 41.4545V44.3523H372.669V41.4545H383.149ZM375.543 60V39.3054C375.543 38.1463 375.796 37.1844 376.303 36.4197C376.811 35.647 377.483 35.0715 378.32 34.6932C379.157 34.3068 380.066 34.1136 381.048 34.1136C381.773 34.1136 382.393 34.174 382.908 34.2947C383.423 34.4074 383.805 34.5121 384.055 34.6087L383.21 37.5305C383.041 37.4822 382.823 37.4259 382.558 37.3615C382.292 37.2891 381.97 37.2528 381.592 37.2528C380.714 37.2528 380.087 37.4702 379.708 37.9048C379.338 38.3395 379.153 38.9673 379.153 39.7884V60H375.543Z" fill="black"/>
</g>
<g filter="url(#filter3_d_319_2361)">
<rect x="416" y="54" width="72" height="52" rx="26" fill="white" shape-rendering="crispEdges"/>
<path d="M430.805 92.2294C430.145 92.2294 429.578 91.996 429.103 91.5291C428.628 91.0542 428.391 90.4827 428.391 89.8146C428.391 89.1546 428.628 88.5911 429.103 88.1243C429.578 87.6494 430.145 87.4119 430.805 87.4119C431.465 87.4119 432.033 87.6494 432.508 88.1243C432.983 88.5911 433.22 89.1546 433.22 89.8146C433.22 90.2573 433.107 90.6638 432.882 91.0341C432.665 91.3963 432.375 91.6861 432.013 91.9034C431.651 92.1207 431.248 92.2294 430.805 92.2294ZM446.882 73.4545V76.3523H436.402V73.4545H446.882ZM439.275 92V71.3054C439.275 70.1463 439.529 69.1844 440.036 68.4197C440.543 67.647 441.215 67.0715 442.052 66.6932C442.889 66.3068 443.799 66.1136 444.781 66.1136C445.505 66.1136 446.125 66.174 446.64 66.2947C447.155 66.4074 447.538 66.5121 447.787 66.6087L446.942 69.5305C446.773 69.4822 446.556 69.4259 446.29 69.3615C446.025 69.2891 445.703 69.2528 445.324 69.2528C444.447 69.2528 443.819 69.4702 443.441 69.9048C443.07 70.3395 442.885 70.9673 442.885 71.7884V92H439.275ZM450.607 92V73.4545H454.217V92H450.607ZM452.43 70.593C451.802 70.593 451.263 70.3838 450.812 69.9652C450.369 69.5386 450.148 69.0315 450.148 68.4439C450.148 67.8482 450.369 67.3411 450.812 66.9226C451.263 66.496 451.802 66.2827 452.43 66.2827C453.058 66.2827 453.593 66.496 454.036 66.9226C454.486 67.3411 454.712 67.8482 454.712 68.4439C454.712 69.0315 454.486 69.5386 454.036 69.9652C453.593 70.3838 453.058 70.593 452.43 70.593ZM466.849 99.3409C465.376 99.3409 464.108 99.1477 463.046 98.7614C461.991 98.375 461.13 97.8639 460.462 97.228C459.794 96.5921 459.295 95.8958 458.965 95.1392L462.068 93.8594C462.285 94.2135 462.575 94.5878 462.937 94.9822C463.307 95.3847 463.806 95.7268 464.434 96.0085C465.07 96.2902 465.887 96.4311 466.885 96.4311C468.253 96.4311 469.384 96.0971 470.278 95.429C471.171 94.7689 471.618 93.7145 471.618 92.2656V88.6193H471.389C471.171 89.0137 470.857 89.4524 470.447 89.9354C470.044 90.4183 469.489 90.8369 468.781 91.1911C468.072 91.5452 467.151 91.7223 466.016 91.7223C464.551 91.7223 463.231 91.3802 462.056 90.696C460.888 90.0038 459.963 88.9856 459.279 87.6413C458.602 86.2891 458.264 84.6269 458.264 82.6548C458.264 80.6828 458.598 78.9924 459.267 77.5838C459.943 76.1752 460.868 75.0966 462.044 74.348C463.219 73.5914 464.551 73.2131 466.04 73.2131C467.191 73.2131 468.121 73.4062 468.829 73.7926C469.537 74.1709 470.089 74.6136 470.483 75.1207C470.886 75.6278 471.195 76.0746 471.413 76.4609H471.678V73.4545H475.216V92.4105C475.216 94.0043 474.846 95.3123 474.105 96.3345C473.365 97.3568 472.363 98.1134 471.099 98.6044C469.843 99.0954 468.427 99.3409 466.849 99.3409ZM466.813 88.728C467.851 88.728 468.728 88.4865 469.445 88.0036C470.169 87.5125 470.717 86.8123 471.087 85.9027C471.465 84.9851 471.654 83.8864 471.654 82.6065C471.654 81.3589 471.469 80.2602 471.099 79.3104C470.729 78.3606 470.185 77.62 469.469 77.0888C468.753 76.5495 467.867 76.2798 466.813 76.2798C465.726 76.2798 464.82 76.5616 464.096 77.125C463.372 77.6804 462.824 78.437 462.454 79.3949C462.092 80.3527 461.911 81.4233 461.911 82.6065C461.911 83.822 462.096 84.8885 462.466 85.8061C462.836 86.7237 463.384 87.4401 464.108 87.9553C464.841 88.4704 465.742 88.728 466.813 88.728Z" fill="black"/>
</g>
<path d="M253.399 188.345C252.331 187.376 252.021 185.981 251.93 184.584C251.848 183.377 251.929 182.2 252.032 180.998C252.128 179.545 252.515 178.111 252.817 176.701C253.109 175.381 253.583 174.08 253.976 172.788C254.827 170.145 255.532 167.461 256.253 164.781C256.599 163.491 256.906 162.175 257.18 160.865C257.439 159.661 257.753 158.487 258.027 157.286C258.067 157.033 258.107 156.779 258.151 156.511C258.199 155.341 258.058 154.179 258.258 153.02C258.304 152.8 258.365 152.583 258.455 152.374C258.19 151.817 258.107 151.171 258.285 150.535C258.674 149.149 260.157 148.303 261.558 148.696C262.483 148.955 263.409 149.152 264.345 149.368C266.298 149.682 268.236 149.992 270.201 150.154C270.139 150.152 270.091 150.154 270.034 150.138C272.359 150.291 274.695 150.292 277.039 150.155C279.395 149.975 281.714 149.597 284.053 149.255C285.378 148.973 286.722 148.68 288.048 148.397C289.11 148.166 290.141 147.878 291.205 147.585C292.301 147.285 293.408 147.003 294.503 146.656C295.924 146.197 297.327 145.75 298.745 145.306C300.888 144.552 303.027 143.812 305.144 142.988C306.155 142.601 307.182 142.219 308.177 141.782C309.437 141.232 310.683 140.678 311.933 140.109C313.824 139.144 315.711 138.193 317.546 137.15C318.452 136.64 319.372 136.135 320.258 135.589C321.299 134.931 322.351 134.291 323.407 133.637C326.535 131.538 329.598 129.391 332.614 127.136C334.09 126.039 335.525 124.868 336.965 123.73C337.587 123.234 338.205 122.753 338.837 122.276C337.235 121.546 335.651 120.806 334.153 119.872C333.041 119.171 331.937 118.441 330.821 117.754C329.645 117.003 328.438 116.307 327.205 115.649C325.619 114.862 324.019 114.179 322.398 113.46C321.553 113.083 320.741 112.699 319.927 112.268C319.132 111.827 318.317 111.178 318 110.31C317.659 109.358 317.815 108.358 318.446 107.553C319.144 106.674 320.29 106.419 321.334 106.198C322.542 105.945 323.769 105.79 324.99 105.603C327.008 105.296 329.019 104.957 331.043 104.574C333.869 103.996 336.695 103.417 339.547 102.971C342.398 102.524 345.257 102.22 348.1 101.802C350.906 101.405 353.706 100.866 356.506 100.327C359.173 99.813 361.837 99.3137 364.511 98.8329C364.874 98.7631 365.25 98.6974 365.613 98.6277C370.561 97.6474 375.477 96.3933 380.275 94.841C381.509 94.4394 382.729 94.0337 383.978 93.6361C384.866 93.3557 385.751 93.0897 386.693 93.2293C388.071 93.4286 389.15 94.6349 389.344 95.9979C389.526 97.2951 389.258 98.6378 388.96 99.925C388.814 100.554 388.669 101.183 388.52 101.827C388.217 103.128 387.91 104.444 387.632 105.769C386.906 109.304 386.28 112.867 385.482 116.382C384.675 119.926 383.666 123.413 382.906 126.954C382.468 129.683 382.193 132.441 381.741 135.165C381.297 137.86 380.799 140.524 380.55 143.243C380.485 144.534 380.419 145.824 380.462 147.113C380.512 148.436 379.653 149.722 378.359 150.06C376.646 150.499 375.209 149.457 373.949 148.449C372.462 147.253 371.081 145.9 369.68 144.619C368.825 143.834 367.983 143.006 367.233 142.126C366.402 141.145 365.718 140.081 365.039 139.003C365.039 139.003 365.039 139.003 365.054 139.007C364.572 138.28 364.064 137.592 363.537 136.914C363.29 137.795 363.01 138.683 362.648 139.531C361.629 141.941 360.243 144.107 358.741 146.241C358.813 146.152 358.87 146.059 358.946 145.955C357.929 147.415 356.773 148.758 355.558 150.037C354.342 151.316 352.934 152.448 351.563 153.559C350.233 154.635 348.839 155.662 347.489 156.701C346.142 157.725 344.841 158.809 343.536 159.908C340.811 162.291 338.087 164.673 335.134 166.759C334.744 167.039 334.358 167.304 333.968 167.584C333.584 167.897 333.14 168.147 332.711 168.4C332.444 168.575 332.177 168.749 331.914 168.909C331.772 169.025 331.602 169.133 331.421 169.222C329.387 170.475 327.297 171.649 325.249 172.897C324.179 173.548 323.119 174.216 322.028 174.829C320.641 175.609 319.262 176.359 317.844 177.083C315.351 178.363 312.683 179.266 310.1 180.364C307.407 181.525 304.763 182.731 302.049 183.855C299.404 184.952 296.658 185.802 293.894 186.491C292.453 186.85 291.004 187.129 289.555 187.408C288.176 187.66 286.771 187.781 285.377 187.919C282.504 188.22 279.642 188.539 276.762 188.697C275.322 188.776 273.88 188.808 272.442 188.825C271.146 188.836 269.852 188.784 268.562 188.828C268.107 188.84 267.633 188.863 267.178 188.876C264.428 189.07 261.675 189.498 258.92 189.489C258.265 189.492 257.618 189.466 256.957 189.437C256.285 189.388 255.613 189.34 254.977 189.162C254.406 189.033 253.871 188.774 253.399 188.345ZM257.219 184.167C258.219 184.213 259.216 184.213 260.221 184.183C263.084 183.973 265.924 183.57 268.796 183.55C271.715 183.527 274.616 183.515 277.525 183.365C279.739 183.191 281.936 182.966 284.142 182.712C285.139 182.602 286.146 182.511 287.161 182.391C288.213 182.249 289.255 182.09 290.294 181.883C292.192 181.449 294.065 180.993 295.933 180.442C295.83 180.475 295.723 180.523 295.606 180.553C297.256 180.003 298.895 179.434 300.501 178.763C302.247 178.037 303.976 177.26 305.705 176.483C307.309 175.765 308.958 175.106 310.593 174.442C312.194 173.785 313.786 173.11 315.371 172.402C317.192 171.464 318.992 170.488 320.755 169.425C322.632 168.285 324.502 167.173 326.405 166.055C327.185 165.604 327.956 165.135 328.736 164.684C329.153 164.365 329.634 164.094 330.067 163.827C330.045 163.851 330.012 163.858 329.989 163.883C330.256 163.708 330.542 163.523 330.809 163.349C330.846 163.328 330.883 163.307 330.909 163.268C331.883 162.575 332.852 161.897 333.79 161.163C334.742 160.433 335.656 159.676 336.583 158.924C338.676 157.127 340.744 155.308 342.893 153.589C345.042 151.871 347.253 150.263 349.392 148.526C350.504 147.561 351.558 146.579 352.593 145.498C353.267 144.706 353.941 143.913 354.537 143.068C354.848 142.625 355.163 142.168 355.478 141.711C355.406 141.8 355.349 141.893 355.273 141.997C355.852 141.1 356.398 140.209 356.919 139.296C357.3 138.546 357.653 137.788 357.981 137.008C358.334 135.969 358.608 134.94 358.841 133.884C358.936 133.381 359.034 132.863 359.114 132.356C359.318 131.182 359.593 129.982 360.717 129.362C361.826 128.739 363.103 128.91 364.063 129.709C364.503 130.081 364.909 130.522 365.305 130.945C366.266 131.962 367.208 132.99 368.091 134.063C368.925 135.091 369.617 136.236 370.316 137.351C370.264 137.259 370.198 137.162 370.132 137.066C370.47 137.581 370.831 138.072 371.21 138.552C372.306 139.81 373.563 140.941 374.794 142.05C374.779 142.046 374.769 142.027 374.744 142.005C374.794 142.05 374.833 142.076 374.868 142.117C374.918 142.162 374.953 142.203 375.007 142.234C374.972 142.193 374.947 142.17 374.908 142.144C375.042 142.275 375.195 142.396 375.33 142.527C375.401 141.55 375.506 140.567 375.653 139.596C376.116 136.781 376.617 133.993 376.974 131.164C377.339 128.307 377.758 125.48 378.478 122.69C379.184 119.897 379.928 117.13 380.562 114.317C380.544 114.437 380.511 114.552 380.493 114.672C381.025 112.11 381.513 109.536 382.03 106.97C382.561 104.409 383.136 101.859 383.711 99.3098C383.318 99.4333 382.935 99.5753 382.542 99.6988C381.187 100.144 379.825 100.557 378.463 100.969C375.85 101.732 373.205 102.439 370.546 103.033C367.788 103.647 364.99 104.124 362.209 104.653C359.33 105.2 356.46 105.766 353.57 106.296C350.708 106.833 347.84 107.228 344.947 107.601C342.153 107.954 339.39 108.364 336.631 108.867C334.336 109.33 332.027 109.788 329.711 110.214C329.348 110.284 328.99 110.339 328.628 110.409C329.396 110.78 330.142 111.176 330.902 111.576C332.325 112.334 333.665 113.223 335.023 114.103C336.259 114.917 337.519 115.644 338.813 116.365C340.009 116.934 341.231 117.464 342.431 118.018C343.48 118.499 344.733 118.975 345.43 119.934C345.836 120.485 346.057 121.029 346.085 121.707C346.105 122.305 345.924 122.893 345.587 123.374C344.873 124.421 343.757 125.12 342.778 125.89C341.707 126.711 340.66 127.554 339.617 128.384C337.413 130.134 335.19 131.894 332.88 133.52C330.488 135.217 328.11 136.919 325.635 138.468C324.427 139.22 323.222 140.019 321.964 140.725C320.703 141.447 319.458 142.219 318.155 142.866C316.755 143.58 315.382 144.363 313.945 144.989C312.504 145.628 311.063 146.268 309.621 146.907C309.124 147.126 308.591 147.304 308.083 147.504C307.178 147.842 306.284 148.199 305.393 148.541C304.013 149.073 302.625 149.525 301.242 150.01C298.632 150.929 295.974 151.742 293.307 152.474C292.309 152.755 291.299 153.079 290.289 153.294C289.113 153.541 287.934 153.802 286.773 154.053C285.946 154.226 285.143 154.422 284.299 154.543C282.917 154.748 281.521 154.948 280.14 155.153C279.15 155.296 278.122 155.35 277.123 155.413C275.65 155.498 274.189 155.541 272.716 155.517C270.406 155.477 268.085 155.309 265.806 154.935C265.031 154.811 264.245 154.668 263.474 154.53C263.481 155.171 263.522 155.805 263.481 156.448C263.403 157.672 263.122 158.84 262.819 160.032C262.273 162.2 261.862 164.391 261.287 166.551C260.704 168.74 260.126 170.914 259.471 173.083C259.13 174.187 258.746 175.279 258.438 176.376C258.134 177.46 257.859 178.551 257.628 179.654C257.534 180.267 257.444 180.865 257.354 181.463C257.281 182.003 257.265 182.559 257.235 183.112C257.238 182.988 257.252 182.883 257.256 182.759C257.194 183.256 257.207 183.711 257.219 184.167Z" fill="#FFF0E8"/>
</g>
<defs>
<filter id="filter0_b_319_2361" x="188" y="152" width="144" height="104" filterUnits="userSpaceOnUse" color-interpolation-filters="sRGB">
<feFlood flood-opacity="0" result="BackgroundImageFix"/>
<feGaussianBlur in="BackgroundImageFix" stdDeviation="20"/>
<feComposite in2="SourceAlpha" operator="in" result="effect1_backgroundBlur_319_2361"/>
<feBlend mode="normal" in="SourceGraphic" in2="effect1_backgroundBlur_319_2361" result="shape"/>
</filter>
<filter id="filter1_b_319_2361" x="178" y="142" width="164" height="124" filterUnits="userSpaceOnUse" color-interpolation-filters="sRGB">
<feFlood flood-opacity="0" result="BackgroundImageFix"/>
<feGaussianBlur in="BackgroundImageFix" stdDeviation="25"/>
<feComposite in2="SourceAlpha" operator="in" result="effect1_backgroundBlur_319_2361"/>
<feBlend mode="normal" in="SourceGraphic" in2="effect1_backgroundBlur_319_2361" result="shape"/>
</filter>
<filter id="filter2_d_319_2361" x="264.06" y="-23.9402" width="176.88" height="143.88" filterUnits="userSpaceOnUse" color-interpolation-filters="sRGB">
<feFlood flood-opacity="0" result="BackgroundImageFix"/>
<feColorMatrix in="SourceAlpha" type="matrix" values="0 0 0 0 0 0 0 0 0 0 0 0 0 0 0 0 0 0 127 0" result="hardAlpha"/>
<feMorphology radius="4.83581" operator="dilate" in="SourceAlpha" result="effect1_dropShadow_319_2361"/>
<feOffset/>
<feGaussianBlur stdDeviation="20.5522"/>
<feComposite in2="hardAlpha" operator="out"/>
<feColorMatrix type="matrix" values="0 0 0 0 1 0 0 0 0 1 0 0 0 0 1 0 0 0 1 0"/>
<feBlend mode="normal" in2="BackgroundImageFix" result="effect1_dropShadow_319_2361"/>
<feBlend mode="normal" in="SourceGraphic" in2="effect1_dropShadow_319_2361" result="shape"/>
</filter>
<filter id="filter3_d_319_2361" x="370.06" y="8.05984" width="163.88" height="143.88" filterUnits="userSpaceOnUse" color-interpolation-filters="sRGB">
<feFlood flood-opacity="0" result="BackgroundImageFix"/>
<feColorMatrix in="SourceAlpha" type="matrix" values="0 0 0 0 0 0 0 0 0 0 0 0 0 0 0 0 0 0 127 0" result="hardAlpha"/>
<feMorphology radius="4.83581" operator="dilate" in="SourceAlpha" result="effect1_dropShadow_319_2361"/>
<feOffset/>
<feGaussianBlur stdDeviation="20.5522"/>
<feComposite in2="hardAlpha" operator="out"/>
<feColorMatrix type="matrix" values="0 0 0 0 1 0 0 0 0 1 0 0 0 0 1 0 0 0 1 0"/>
<feBlend mode="normal" in2="BackgroundImageFix" result="effect1_dropShadow_319_2361"/>
<feBlend mode="normal" in="SourceGraphic" in2="effect1_dropShadow_319_2361" result="shape"/>
</filter>
<clipPath id="clip0_319_2361">
<rect width="520" height="224" rx="20" fill="white"/>
</clipPath>
<clipPath id="clip1_319_2361">
<rect x="228" y="192" width="64" height="24" rx="12" fill="white"/>
</clipPath>
<clipPath id="clip2_319_2361">
<rect width="520" height="224" rx="20" fill="white"/>
</clipPath>
</defs>
</svg>
