<svg width="138" height="17" viewBox="0 0 138 17" fill="none" xmlns="http://www.w3.org/2000/svg">
<path d="M1.69629 16.1074C1.11621 16.1074 0.761719 15.71 0.761719 15.0762V2.95898C0.761719 1.78809 1.24512 1.33691 2.5127 1.33691H6.08984C8.89355 1.33691 10.7627 3.16309 10.7627 5.8916C10.7627 8.6416 8.89355 10.4355 6.06836 10.4355H2.63086V15.0762C2.63086 15.71 2.27637 16.1074 1.69629 16.1074ZM2.6416 8.79199H4.87598C7.78711 8.79199 8.83984 8.0293 8.83984 5.8916C8.83984 4.05469 7.79785 2.99121 5.98242 2.99121H2.6416V8.79199ZM15.0596 15.0762C15.0596 15.7207 14.7266 16.1074 14.1357 16.1074C13.5557 16.1074 13.2119 15.7207 13.2119 15.0762V5.63379C13.2119 5 13.5771 4.60254 14.1465 4.60254C14.7158 4.60254 15.0488 4.98926 15.0488 5.6123V6.04199H15.1025C15.6934 5.03223 16.5635 4.52734 17.5947 4.52734C17.917 4.52734 18.1855 4.5918 18.3896 4.7207C18.626 4.86035 18.7549 5.10742 18.7549 5.39746C18.7549 5.73047 18.6367 5.95605 18.3896 6.0957C18.1963 6.20312 17.9277 6.24609 17.5732 6.24609C15.9189 6.25684 15.0596 7.14844 15.0596 9.00684V15.0762ZM20.1943 11.2627V9.47949C20.1943 6.55762 22.1279 4.5166 24.9102 4.5166C27.6064 4.5166 29.4971 6.48242 29.4971 9.25391C29.4971 10.4785 29.2822 10.8223 28.4873 10.8223H22.0635V11.4131C22.0742 13.3682 23.2451 14.5928 25.1787 14.5928C26.1348 14.5928 26.876 14.3027 27.4775 13.7227C28.0576 13.1855 28.1865 13.0996 28.498 13.0996C28.9062 13.0996 29.2178 13.4326 29.2178 13.8838C29.2178 14.2168 29.0137 14.625 28.6914 14.958C27.9824 15.7207 26.6074 16.1934 25.0928 16.1934C22.0635 16.1934 20.1943 14.3135 20.1943 11.2627ZM22.0635 9.31836H27.6602V9.28613C27.6602 7.3418 26.5967 6.10645 24.9316 6.10645C23.2236 6.10645 22.0635 7.39551 22.0635 9.28613V9.31836ZM31.6455 13.7012C31.6455 13.1855 31.957 12.874 32.4512 12.874C32.752 12.874 32.9775 13.0244 33.3535 13.4863C34.041 14.2812 34.9219 14.6787 36.0713 14.6787C37.5215 14.6787 38.4346 14.0234 38.4346 12.9814C38.4346 12.1865 37.8545 11.585 36.8662 11.3486L34.7178 10.8545C32.752 10.4033 31.8066 9.41504 31.8066 7.8252C31.8066 5.81641 33.418 4.5166 35.9316 4.5166C37.0596 4.5166 38.1016 4.80664 38.8965 5.33301C39.5732 5.78418 39.9922 6.39648 39.9922 6.95508C39.9922 7.42773 39.6807 7.71777 39.208 7.71777C38.875 7.71777 38.7031 7.61035 38.252 7.14844C37.5 6.34277 36.8447 6.03125 35.8564 6.03125C34.4707 6.03125 33.6221 6.66504 33.6221 7.70703C33.6221 8.52344 34.1484 9.01758 35.2764 9.29688L37.3711 9.80176C39.3369 10.2744 40.25 11.2305 40.25 12.8311C40.25 14.8936 38.6172 16.1934 35.9746 16.1934C34.8252 16.1934 33.7402 15.9248 32.9023 15.4521C32.0967 14.9902 31.6455 14.3564 31.6455 13.7012ZM42.4951 11.2627V9.47949C42.4951 6.55762 44.4287 4.5166 47.2109 4.5166C49.9072 4.5166 51.7979 6.48242 51.7979 9.25391C51.7979 10.4785 51.583 10.8223 50.7881 10.8223H44.3643V11.4131C44.375 13.3682 45.5459 14.5928 47.4795 14.5928C48.4355 14.5928 49.1768 14.3027 49.7783 13.7227C50.3584 13.1855 50.4873 13.0996 50.7988 13.0996C51.207 13.0996 51.5186 13.4326 51.5186 13.8838C51.5186 14.2168 51.3145 14.625 50.9922 14.958C50.2832 15.7207 48.9082 16.1934 47.3936 16.1934C44.3643 16.1934 42.4951 14.3135 42.4951 11.2627ZM44.3643 9.31836H49.9609V9.28613C49.9609 7.3418 48.8975 6.10645 47.2324 6.10645C45.5244 6.10645 44.3643 7.39551 44.3643 9.28613V9.31836ZM63.7969 15.0762C63.7969 15.7207 63.4424 16.1074 62.8623 16.1074C62.2822 16.1074 61.9385 15.7207 61.9385 15.0762V8.83496C61.9385 7.08398 61.0576 6.16016 59.4678 6.16016C57.6094 6.16016 56.4385 7.48145 56.4385 9.68359V15.0762C56.4385 15.7207 56.0947 16.1074 55.5146 16.1074C54.9346 16.1074 54.5908 15.7207 54.5908 15.0762V5.63379C54.5908 4.98926 54.9453 4.60254 55.5146 4.60254C56.084 4.60254 56.4277 4.97852 56.4277 5.6123V6.77246H56.5244C56.9971 5.34375 58.2217 4.52734 59.9512 4.52734C62.3896 4.52734 63.7969 5.90234 63.7969 8.27637V15.0762ZM67.6211 13.0029V6.27832H66.8047C66.2783 6.27832 65.9453 5.98828 65.9453 5.50488C65.9453 5.02148 66.2676 4.7207 66.8047 4.7207H67.6318V2.8623C67.6318 2.21777 67.9756 1.8418 68.5449 1.8418C69.125 1.8418 69.4688 2.21777 69.4688 2.8623V4.7207H70.9834C71.5205 4.7207 71.8428 5.02148 71.8428 5.50488C71.8428 5.98828 71.5098 6.27832 70.9834 6.27832H69.4795V13.0244C69.4795 14.2275 69.7803 14.582 70.8223 14.582C71.123 14.582 71.3379 14.5498 71.542 14.5498C71.9609 14.5498 72.251 14.8184 72.251 15.2373C72.251 15.5381 72.1113 15.7852 71.7783 15.9463C71.4775 16.0967 71.0586 16.1719 70.4463 16.1719C68.4053 16.1719 67.6211 15.3555 67.6211 13.0029ZM80.6084 14.4961C79.9316 15.5918 78.7822 16.1826 77.3535 16.1826C75.1514 16.1826 73.6689 14.7861 73.6689 12.7129C73.6689 10.6611 75.1621 9.38281 77.6436 9.38281H80.6299V8.28711C80.6299 6.83691 79.7598 6.0957 78.1377 6.0957C77.1816 6.0957 76.5371 6.42871 75.8604 7.20215C75.6025 7.50293 75.3555 7.61035 75.0225 7.61035C74.5928 7.61035 74.3027 7.32031 74.3027 6.87988C74.3027 6.24609 74.7432 5.62305 75.6455 5.10742C76.3008 4.73145 77.1494 4.52734 78.2559 4.52734C80.9736 4.52734 82.4775 5.85938 82.4775 8.27637V15.0869C82.4775 15.7314 82.1445 16.1074 81.5752 16.1074C81.0273 16.1074 80.7051 15.7422 80.6836 15.1299V14.4961H80.6084ZM75.5596 12.6699C75.5596 13.8408 76.4834 14.6357 77.8584 14.6357C79.416 14.6357 80.6299 13.5615 80.6299 12.1543V10.876H77.7402C76.3545 10.876 75.5596 11.5205 75.5596 12.6699ZM86.3125 13.0029V6.27832H85.4961C84.9697 6.27832 84.6367 5.98828 84.6367 5.50488C84.6367 5.02148 84.959 4.7207 85.4961 4.7207H86.3232V2.8623C86.3232 2.21777 86.667 1.8418 87.2363 1.8418C87.8164 1.8418 88.1602 2.21777 88.1602 2.8623V4.7207H89.6748C90.2119 4.7207 90.5342 5.02148 90.5342 5.50488C90.5342 5.98828 90.2012 6.27832 89.6748 6.27832H88.1709V13.0244C88.1709 14.2275 88.4717 14.582 89.5137 14.582C89.8145 14.582 90.0293 14.5498 90.2334 14.5498C90.6523 14.5498 90.9424 14.8184 90.9424 15.2373C90.9424 15.5381 90.8027 15.7852 90.4697 15.9463C90.1689 16.0967 89.75 16.1719 89.1377 16.1719C87.0967 16.1719 86.3125 15.3555 86.3125 13.0029ZM93.0908 1.88477C93.0908 1.20801 93.6172 0.724609 94.2617 0.724609C94.96 0.724609 95.4756 1.20801 95.4756 1.88477C95.4756 2.56152 94.96 3.06641 94.2617 3.06641C93.6172 3.06641 93.0908 2.56152 93.0908 1.88477ZM95.1963 15.0762C95.1963 15.7744 94.7988 16.1074 94.2725 16.1074C93.7461 16.1074 93.3486 15.7637 93.3486 15.0762V5.63379C93.3486 4.93555 93.7568 4.60254 94.2832 4.60254C94.8096 4.60254 95.1963 4.94629 95.1963 5.63379V15.0762ZM103.017 4.5166C105.788 4.5166 107.861 6.33203 107.861 9.49023V11.209C107.861 14.3779 105.788 16.1934 103.017 16.1934C100.234 16.1934 98.1611 14.3779 98.1611 11.209V9.49023C98.1611 6.33203 100.234 4.5166 103.017 4.5166ZM103.017 6.12793C101.19 6.12793 100.03 7.52441 100.03 9.65137V11.0479C100.03 13.2285 101.19 14.5928 103.017 14.5928C104.843 14.5928 105.981 13.2285 105.981 11.0479V9.65137C105.981 7.52441 104.843 6.12793 103.017 6.12793ZM119.914 15.0762C119.914 15.7207 119.56 16.1074 118.979 16.1074C118.399 16.1074 118.056 15.7207 118.056 15.0762V8.83496C118.056 7.08398 117.175 6.16016 115.585 6.16016C113.727 6.16016 112.556 7.48145 112.556 9.68359V15.0762C112.556 15.7207 112.212 16.1074 111.632 16.1074C111.052 16.1074 110.708 15.7207 110.708 15.0762V5.63379C110.708 4.98926 111.062 4.60254 111.632 4.60254C112.201 4.60254 112.545 4.97852 112.545 5.6123V6.77246H112.642C113.114 5.34375 114.339 4.52734 116.068 4.52734C118.507 4.52734 119.914 5.90234 119.914 8.27637V15.0762Z" fill="black"/>
<path d="M122.89 16.1396C122.353 16.1396 121.998 15.8281 121.998 15.334C121.998 15.1191 122.052 14.915 122.138 14.6572L126.553 2.31445C126.821 1.5625 127.197 1.21875 127.885 1.21875C128.572 1.21875 128.948 1.5625 129.217 2.31445L133.632 14.6572C133.718 14.8936 133.771 15.1191 133.771 15.3232C133.771 15.8281 133.417 16.1396 132.869 16.1396C132.354 16.1396 132.063 15.8926 131.859 15.2588L130.624 11.5957H125.135L123.899 15.2588C123.695 15.9033 123.405 16.1396 122.89 16.1396ZM125.64 10.0811H130.119L127.917 3.5498H127.842L125.64 10.0811ZM137.026 16.1074C136.446 16.1074 136.092 15.71 136.092 15.0762V2.26074C136.092 1.62695 136.446 1.22949 137.026 1.22949C137.606 1.22949 137.972 1.62695 137.972 2.26074V15.0762C137.972 15.71 137.606 16.1074 137.026 16.1074Z" fill="#5269FF"/>
</svg>
